<?xml version="1.0" encoding="utf-8" standalone="no"?>
<!DOCTYPE svg PUBLIC "-//W3C//DTD SVG 1.1//EN"
  "http://www.w3.org/Graphics/SVG/1.1/DTD/svg11.dtd">
<svg xmlns:xlink="http://www.w3.org/1999/xlink" width="939.997812pt" height="395.965937pt" viewBox="0 0 939.997812 395.965937" xmlns="http://www.w3.org/2000/svg" version="1.1">
 <metadata>
  <rdf:RDF xmlns:dc="http://purl.org/dc/elements/1.1/" xmlns:cc="http://creativecommons.org/ns#" xmlns:rdf="http://www.w3.org/1999/02/22-rdf-syntax-ns#">
   <cc:Work>
    <dc:type rdf:resource="http://purl.org/dc/dcmitype/StillImage"/>
    <dc:date>2026-10-08T15:08:35.106356</dc:date>
    <dc:format>image/svg+xml</dc:format>
    <dc:creator>
     <cc:Agent>
      <dc:title>Matplotlib v3.9.2, https://matplotlib.org/</dc:title>
     </cc:Agent>
    </dc:creator>
   </cc:Work>
  </rdf:RDF>
 </metadata>
 <defs>
  <style type="text/css">*{stroke-linejoin: round; stroke-linecap: butt}</style>
 </defs>
 <g id="figure_1">
  <g id="patch_1">
   <path d="M 0 395.965937 
L 939.997812 395.965937 
L 939.997812 -0 
L 0 -0 
z
" style="fill: #ffffff"/>
  </g>
  <g id="axes_1">
   <g id="patch_2">
    <path d="M 43.111563 327.44 
L 480.264687 327.44 
L 480.264687 94.326 
L 43.111563 94.326 
z
" style="fill: #ffffff"/>
   </g>
   <g id="matplotlib.axis_1">
    <g id="xtick_1">
     <g id="line2d_1">
      <defs>
       <path id="m41746ccc53" d="M 0 0 
L 0 3.5 
" style="stroke: #000000; stroke-width: 0.8"/>
      </defs>
      <g>
       <use xlink:href="#m41746ccc53" x="100.57518" y="327.44" style="stroke: #000000; stroke-width: 0.8"/>
      </g>
     </g>
     <g id="text_1">
      <!-- ≤50 nt -->
      <g transform="translate(82.979477 343.233125) scale(0.11 -0.11)">
       <defs>
        <path id="MicrosoftYaHei-2264" d="M 3844 853 
L 909 2306 
L 909 2547 
L 3844 4144 
L 3844 3606 
L 1663 2447 
L 1663 2434 
L 3844 1400 
L 3844 853 
z
M 3969 0 
L 784 0 
L 784 475 
L 3969 475 
L 3969 0 
z
" transform="scale(0.015625)"/>
        <path id="MicrosoftYaHei-35" d="M 3294 1494 
Q 3294 784 2823 350 
Q 2353 -84 1559 -84 
Q 878 -84 544 119 
L 544 744 
Q 1034 425 1544 425 
Q 2050 425 2361 704 
Q 2672 984 2672 1447 
Q 2672 1909 2348 2167 
Q 2025 2425 1434 2425 
Q 978 2425 613 2384 
L 791 4841 
L 3053 4841 
L 3053 4303 
L 1306 4303 
L 1206 2931 
L 1647 2950 
Q 2416 2950 2855 2567 
Q 3294 2184 3294 1494 
z
" transform="scale(0.015625)"/>
        <path id="MicrosoftYaHei-30" d="M 284 2325 
Q 284 3606 709 4264 
Q 1134 4922 1941 4922 
Q 3478 4922 3478 2441 
Q 3478 1216 3045 567 
Q 2613 -81 1831 -81 
Q 1094 -81 689 534 
Q 284 1150 284 2325 
z
M 909 2353 
Q 909 425 1888 425 
Q 2850 425 2850 2384 
Q 2850 4413 1906 4413 
Q 909 4413 909 2353 
z
" transform="scale(0.015625)"/>
        <path id="MicrosoftYaHei-20" transform="scale(0.015625)"/>
        <path id="MicrosoftYaHei-6e" d="M 3469 0 
L 2859 0 
L 2859 1966 
Q 2859 3031 2081 3031 
Q 1678 3031 1418 2731 
Q 1159 2431 1159 1972 
L 1159 0 
L 547 0 
L 547 3456 
L 1159 3456 
L 1159 2884 
L 1172 2884 
Q 1563 3538 2306 3538 
Q 2875 3538 3172 3173 
Q 3469 2809 3469 2113 
L 3469 0 
z
" transform="scale(0.015625)"/>
        <path id="MicrosoftYaHei-74" d="M 2206 34 
Q 2006 -75 1666 -75 
Q 738 -75 738 953 
L 738 2950 
L 144 2950 
L 144 3456 
L 738 3456 
L 738 4288 
L 1347 4481 
L 1347 3456 
L 2206 3456 
L 2206 2950 
L 1347 2950 
L 1347 1063 
Q 1347 722 1462 575 
Q 1578 428 1847 428 
Q 2053 428 2206 544 
L 2206 34 
z
" transform="scale(0.015625)"/>
       </defs>
       <use xlink:href="#MicrosoftYaHei-2264"/>
       <use xlink:href="#MicrosoftYaHei-35" x="74.169922"/>
       <use xlink:href="#MicrosoftYaHei-30" x="132.8125"/>
       <use xlink:href="#MicrosoftYaHei-20" x="191.455078"/>
       <use xlink:href="#MicrosoftYaHei-6e" x="221.044922"/>
       <use xlink:href="#MicrosoftYaHei-74" x="282.666016"/>
      </g>
      <!-- (n=47) -->
      <g transform="translate(82.981195 356.519406) scale(0.11 -0.11)">
       <defs>
        <path id="MicrosoftYaHei-28" d="M 1531 -1100 
Q 478 100 478 1847 
Q 478 3594 1531 4841 
L 2072 4841 
Q 1016 3544 1016 1853 
Q 1016 166 2066 -1100 
L 1531 -1100 
z
" transform="scale(0.015625)"/>
        <path id="MicrosoftYaHei-3d" d="M 3972 2497 
L 788 2497 
L 788 2969 
L 3972 2969 
L 3972 2497 
z
M 3972 1053 
L 788 1053 
L 788 1525 
L 3972 1525 
L 3972 1053 
z
" transform="scale(0.015625)"/>
        <path id="MicrosoftYaHei-34" d="M 2906 4841 
L 2906 1644 
L 3631 1644 
L 3631 1138 
L 2906 1138 
L 2906 0 
L 2313 0 
L 2313 1138 
L 53 1138 
L 53 1616 
Q 656 2294 1265 3178 
Q 1875 4063 2272 4841 
L 2906 4841 
z
M 741 1644 
L 2313 1644 
L 2313 3950 
Q 1988 3366 1616 2817 
Q 1244 2269 741 1644 
z
" transform="scale(0.015625)"/>
        <path id="MicrosoftYaHei-37" d="M 3422 4463 
Q 2659 3131 2223 1998 
Q 1788 866 1684 0 
L 1047 0 
Q 1163 853 1594 1947 
Q 2025 3041 2747 4300 
L 347 4300 
L 347 4841 
L 3422 4841 
L 3422 4463 
z
" transform="scale(0.015625)"/>
        <path id="MicrosoftYaHei-29" d="M 78 -1100 
Q 1131 163 1131 1853 
Q 1131 3547 72 4841 
L 616 4841 
Q 1672 3603 1672 1847 
Q 1672 91 616 -1100 
L 78 -1100 
z
" transform="scale(0.015625)"/>
       </defs>
       <use xlink:href="#MicrosoftYaHei-28"/>
       <use xlink:href="#MicrosoftYaHei-6e" x="33.398438"/>
       <use xlink:href="#MicrosoftYaHei-3d" x="95.019531"/>
       <use xlink:href="#MicrosoftYaHei-34" x="169.189453"/>
       <use xlink:href="#MicrosoftYaHei-37" x="227.832031"/>
       <use xlink:href="#MicrosoftYaHei-29" x="286.474609"/>
      </g>
     </g>
    </g>
    <g id="xtick_2">
     <g id="line2d_2">
      <g>
       <use xlink:href="#m41746ccc53" x="207.98381" y="327.44" style="stroke: #000000; stroke-width: 0.8"/>
      </g>
     </g>
     <g id="text_2">
      <!-- 51–100 nt -->
      <g transform="translate(181.821857 343.233125) scale(0.11 -0.11)">
       <defs>
        <path id="MicrosoftYaHei-31" d="M 1781 0 
L 1781 4141 
Q 1638 3997 1295 3819 
Q 953 3641 663 3569 
L 663 4169 
Q 1047 4275 1484 4508 
Q 1922 4741 2156 4947 
L 2388 4947 
L 2388 0 
L 1781 0 
z
" transform="scale(0.015625)"/>
        <path id="MicrosoftYaHei-2013" d="M 3456 1681 
L 0 1681 
L 0 2153 
L 3456 2153 
L 3456 1681 
z
" transform="scale(0.015625)"/>
       </defs>
       <use xlink:href="#MicrosoftYaHei-35"/>
       <use xlink:href="#MicrosoftYaHei-31" x="58.642578"/>
       <use xlink:href="#MicrosoftYaHei-2013" x="117.285156"/>
       <use xlink:href="#MicrosoftYaHei-31" x="171.289062"/>
       <use xlink:href="#MicrosoftYaHei-30" x="229.931641"/>
       <use xlink:href="#MicrosoftYaHei-30" x="288.574219"/>
       <use xlink:href="#MicrosoftYaHei-20" x="347.216797"/>
       <use xlink:href="#MicrosoftYaHei-6e" x="376.806641"/>
       <use xlink:href="#MicrosoftYaHei-74" x="438.427734"/>
      </g>
      <!-- (n=20) -->
      <g transform="translate(190.389826 356.519406) scale(0.11 -0.11)">
       <defs>
        <path id="MicrosoftYaHei-32" d="M 2666 3572 
Q 2666 3963 2419 4186 
Q 2172 4409 1747 4409 
Q 1447 4409 1140 4256 
Q 834 4103 569 3819 
L 569 4413 
Q 806 4659 1107 4790 
Q 1409 4922 1816 4922 
Q 2472 4922 2872 4570 
Q 3272 4219 3272 3619 
Q 3272 3084 3026 2693 
Q 2781 2303 2188 1894 
Q 1581 1475 1376 1294 
Q 1172 1113 1090 947 
Q 1009 781 1009 544 
L 3416 544 
L 3416 0 
L 372 0 
L 372 241 
Q 372 659 486 951 
Q 600 1244 862 1520 
Q 1125 1797 1681 2184 
Q 2250 2584 2458 2886 
Q 2666 3188 2666 3572 
z
" transform="scale(0.015625)"/>
       </defs>
       <use xlink:href="#MicrosoftYaHei-28"/>
       <use xlink:href="#MicrosoftYaHei-6e" x="33.398438"/>
       <use xlink:href="#MicrosoftYaHei-3d" x="95.019531"/>
       <use xlink:href="#MicrosoftYaHei-32" x="169.189453"/>
       <use xlink:href="#MicrosoftYaHei-30" x="227.832031"/>
       <use xlink:href="#MicrosoftYaHei-29" x="286.474609"/>
      </g>
     </g>
    </g>
    <g id="xtick_3">
     <g id="line2d_3">
      <g>
       <use xlink:href="#m41746ccc53" x="315.39244" y="327.44" style="stroke: #000000; stroke-width: 0.8"/>
      </g>
     </g>
     <g id="text_3">
      <!-- 101–200 nt -->
      <g transform="translate(286.005253 343.233125) scale(0.11 -0.11)">
       <use xlink:href="#MicrosoftYaHei-31"/>
       <use xlink:href="#MicrosoftYaHei-30" x="58.642578"/>
       <use xlink:href="#MicrosoftYaHei-31" x="117.285156"/>
       <use xlink:href="#MicrosoftYaHei-2013" x="175.927734"/>
       <use xlink:href="#MicrosoftYaHei-32" x="229.931641"/>
       <use xlink:href="#MicrosoftYaHei-30" x="288.574219"/>
       <use xlink:href="#MicrosoftYaHei-30" x="347.216797"/>
       <use xlink:href="#MicrosoftYaHei-20" x="405.859375"/>
       <use xlink:href="#MicrosoftYaHei-6e" x="435.449219"/>
       <use xlink:href="#MicrosoftYaHei-74" x="497.070312"/>
      </g>
      <!-- (n=14) -->
      <g transform="translate(297.798456 356.519406) scale(0.11 -0.11)">
       <use xlink:href="#MicrosoftYaHei-28"/>
       <use xlink:href="#MicrosoftYaHei-6e" x="33.398438"/>
       <use xlink:href="#MicrosoftYaHei-3d" x="95.019531"/>
       <use xlink:href="#MicrosoftYaHei-31" x="169.189453"/>
       <use xlink:href="#MicrosoftYaHei-34" x="227.832031"/>
       <use xlink:href="#MicrosoftYaHei-29" x="286.474609"/>
      </g>
     </g>
    </g>
    <g id="xtick_4">
     <g id="line2d_4">
      <g>
       <use xlink:href="#m41746ccc53" x="422.80107" y="327.44" style="stroke: #000000; stroke-width: 0.8"/>
      </g>
     </g>
     <g id="text_4">
      <!-- &gt;200 nt -->
      <g transform="translate(401.980133 343.233125) scale(0.11 -0.11)">
       <defs>
        <path id="MicrosoftYaHei-3e" d="M 3844 1866 
L 913 409 
L 913 947 
L 3094 1981 
L 3094 2003 
L 913 3175 
L 913 3716 
L 3844 2103 
L 3844 1866 
z
" transform="scale(0.015625)"/>
       </defs>
       <use xlink:href="#MicrosoftYaHei-3e"/>
       <use xlink:href="#MicrosoftYaHei-32" x="74.169922"/>
       <use xlink:href="#MicrosoftYaHei-30" x="132.8125"/>
       <use xlink:href="#MicrosoftYaHei-30" x="191.455078"/>
       <use xlink:href="#MicrosoftYaHei-20" x="250.097656"/>
       <use xlink:href="#MicrosoftYaHei-6e" x="279.6875"/>
       <use xlink:href="#MicrosoftYaHei-74" x="341.308594"/>
      </g>
      <!-- (n=22) -->
      <g transform="translate(405.207086 356.519406) scale(0.11 -0.11)">
       <use xlink:href="#MicrosoftYaHei-28"/>
       <use xlink:href="#MicrosoftYaHei-6e" x="33.398438"/>
       <use xlink:href="#MicrosoftYaHei-3d" x="95.019531"/>
       <use xlink:href="#MicrosoftYaHei-32" x="169.189453"/>
       <use xlink:href="#MicrosoftYaHei-32" x="227.832031"/>
       <use xlink:href="#MicrosoftYaHei-29" x="286.474609"/>
      </g>
     </g>
    </g>
   </g>
   <g id="matplotlib.axis_2">
    <g id="ytick_1">
     <g id="line2d_5">
      <path d="M 43.111563 327.44 
L 480.264687 327.44 
" clip-path="url(#pf46728a31b)" style="fill: none; stroke: #b0b0b0; stroke-opacity: 0.2; stroke-width: 0.8; stroke-linecap: square"/>
     </g>
     <g id="line2d_6">
      <defs>
       <path id="m29009faaee" d="M 0 0 
L -3.5 0 
" style="stroke: #000000; stroke-width: 0.8"/>
      </defs>
      <g>
       <use xlink:href="#m29009faaee" x="43.111563" y="327.44" style="stroke: #000000; stroke-width: 0.8"/>
      </g>
     </g>
     <g id="text_5">
      <!-- 0 -->
      <g transform="translate(29.661094 331.836563) scale(0.11 -0.11)">
       <use xlink:href="#MicrosoftYaHei-30"/>
      </g>
     </g>
    </g>
    <g id="ytick_2">
     <g id="line2d_7">
      <path d="M 43.111563 276.763043 
L 480.264687 276.763043 
" clip-path="url(#pf46728a31b)" style="fill: none; stroke: #b0b0b0; stroke-opacity: 0.2; stroke-width: 0.8; stroke-linecap: square"/>
     </g>
     <g id="line2d_8">
      <g>
       <use xlink:href="#m29009faaee" x="43.111563" y="276.763043" style="stroke: #000000; stroke-width: 0.8"/>
      </g>
     </g>
     <g id="text_6">
      <!-- 5 -->
      <g transform="translate(29.661094 281.159606) scale(0.11 -0.11)">
       <use xlink:href="#MicrosoftYaHei-35"/>
      </g>
     </g>
    </g>
    <g id="ytick_3">
     <g id="line2d_9">
      <path d="M 43.111563 226.086087 
L 480.264687 226.086087 
" clip-path="url(#pf46728a31b)" style="fill: none; stroke: #b0b0b0; stroke-opacity: 0.2; stroke-width: 0.8; stroke-linecap: square"/>
     </g>
     <g id="line2d_10">
      <g>
       <use xlink:href="#m29009faaee" x="43.111563" y="226.086087" style="stroke: #000000; stroke-width: 0.8"/>
      </g>
     </g>
     <g id="text_7">
      <!-- 10 -->
      <g transform="translate(23.210625 230.482649) scale(0.11 -0.11)">
       <use xlink:href="#MicrosoftYaHei-31"/>
       <use xlink:href="#MicrosoftYaHei-30" x="58.642578"/>
      </g>
     </g>
    </g>
    <g id="ytick_4">
     <g id="line2d_11">
      <path d="M 43.111563 175.40913 
L 480.264687 175.40913 
" clip-path="url(#pf46728a31b)" style="fill: none; stroke: #b0b0b0; stroke-opacity: 0.2; stroke-width: 0.8; stroke-linecap: square"/>
     </g>
     <g id="line2d_12">
      <g>
       <use xlink:href="#m29009faaee" x="43.111563" y="175.40913" style="stroke: #000000; stroke-width: 0.8"/>
      </g>
     </g>
     <g id="text_8">
      <!-- 15 -->
      <g transform="translate(23.210625 179.805693) scale(0.11 -0.11)">
       <use xlink:href="#MicrosoftYaHei-31"/>
       <use xlink:href="#MicrosoftYaHei-35" x="58.642578"/>
      </g>
     </g>
    </g>
    <g id="ytick_5">
     <g id="line2d_13">
      <path d="M 43.111563 124.732174 
L 480.264687 124.732174 
" clip-path="url(#pf46728a31b)" style="fill: none; stroke: #b0b0b0; stroke-opacity: 0.2; stroke-width: 0.8; stroke-linecap: square"/>
     </g>
     <g id="line2d_14">
      <g>
       <use xlink:href="#m29009faaee" x="43.111563" y="124.732174" style="stroke: #000000; stroke-width: 0.8"/>
      </g>
     </g>
     <g id="text_9">
      <!-- 20 -->
      <g transform="translate(23.210625 129.128736) scale(0.11 -0.11)">
       <use xlink:href="#MicrosoftYaHei-32"/>
       <use xlink:href="#MicrosoftYaHei-30" x="58.642578"/>
      </g>
     </g>
    </g>
    <g id="text_10">
     <!-- 链级平均 RMSD（Å） -->
     <g transform="translate(16.476094 265.708547) rotate(-90) scale(0.11 -0.11)">
      <defs>
       <path id="MicrosoftYaHei-94fe" d="M 4050 2609 
L 4756 2609 
L 4756 3734 
L 5206 3734 
L 5206 2609 
L 6069 2609 
L 6069 2172 
L 5206 2172 
L 5206 1366 
L 6238 1366 
L 6238 928 
L 5206 928 
L 5206 -53 
L 4756 -53 
L 4756 928 
L 3375 928 
L 3375 1366 
L 4756 1366 
L 4756 2172 
L 3569 2172 
L 3569 2609 
Q 3859 3309 4100 4078 
L 3475 4078 
L 3475 4516 
L 4228 4516 
Q 4347 4925 4450 5353 
L 4931 5259 
Q 4831 4888 4716 4516 
L 6169 4516 
L 6169 4078 
L 4578 4078 
Q 4341 3350 4050 2609 
z
M 4275 -178 
Q 5119 -216 6306 -159 
Q 6206 -409 6125 -641 
Q 5025 -666 4231 -622 
Q 3356 -591 2894 72 
Q 2719 -166 2288 -828 
L 1969 -384 
Q 2375 106 2656 466 
L 2656 2622 
L 2150 2622 
L 2150 3072 
L 3106 3072 
L 3106 466 
Q 3494 -166 4275 -178 
z
M 2081 922 
Q 2138 641 2188 459 
Q 1600 -97 1256 -447 
Q 1206 -509 1081 -678 
L 738 -291 
Q 913 -97 913 278 
L 913 1566 
L 113 1566 
L 113 2003 
L 913 2003 
L 913 2766 
L 656 2766 
L 656 3203 
L 1981 3203 
L 1981 2766 
L 1369 2766 
L 1369 2003 
L 2150 2003 
L 2150 1566 
L 1369 1566 
L 1369 253 
Q 1769 609 2081 922 
z
M 100 3153 
Q 600 3978 894 5303 
L 1363 5203 
Q 1247 4750 1106 4334 
L 2175 4334 
L 2175 3897 
L 947 3897 
Q 684 3225 344 2666 
Q 238 2897 100 3153 
z
M 2750 5253 
Q 3056 4491 3250 3872 
Q 3000 3791 2775 3709 
Q 2588 4378 2319 5116 
L 2750 5253 
z
" transform="scale(0.015625)"/>
       <path id="MicrosoftYaHei-7ea7" d="M 3272 2522 
Q 3175 466 1994 -803 
Q 1769 -578 1594 -453 
Q 2394 391 2631 1428 
Q 2859 2322 2844 4497 
L 2288 4497 
L 2288 4941 
L 5406 4941 
L 5406 4472 
L 4800 3216 
L 5838 3216 
L 5838 2753 
Q 5475 1622 4853 775 
Q 5456 163 6331 -291 
Q 6144 -472 5913 -753 
Q 5088 -231 4522 359 
Q 3881 -366 3013 -847 
Q 2838 -616 2663 -447 
Q 3563 63 4188 756 
Q 3625 1500 3272 2522 
z
M 4281 3228 
L 4881 4497 
L 3319 4497 
Q 3322 4050 3316 3653 
Q 3794 2034 4513 1153 
Q 5044 1878 5319 2772 
L 4281 2772 
L 4281 3228 
z
M 938 1897 
Q 1588 1966 2263 2053 
Q 2238 1847 2213 1647 
Q 1194 1522 413 1391 
L 300 1834 
Q 672 2163 1234 3028 
Q 753 2994 244 2941 
L 125 3334 
Q 644 3909 1331 5334 
L 1806 5128 
Q 1163 4041 681 3366 
Q 1031 3378 1469 3397 
Q 1694 3766 1950 4209 
L 2400 3997 
Q 1456 2566 938 1897 
z
M 100 441 
Q 1100 678 2131 959 
Q 2138 741 2150 528 
Q 1094 241 275 -3 
L 100 441 
z
" transform="scale(0.015625)"/>
       <path id="MicrosoftYaHei-5e73" d="M 169 1934 
L 2938 1934 
L 2938 4547 
L 450 4547 
L 450 5028 
L 5975 5028 
L 5975 4547 
L 3463 4547 
L 3463 1934 
L 6250 1934 
L 6250 1453 
L 3463 1453 
L 3463 -847 
L 2938 -847 
L 2938 1453 
L 169 1453 
L 169 1934 
z
M 3950 2559 
Q 4638 3284 5188 4159 
L 5656 3859 
Q 4950 2891 4338 2234 
L 3950 2559 
z
M 769 3859 
L 1163 4134 
Q 1863 3316 2369 2553 
L 1925 2222 
Q 1444 3003 769 3859 
z
" transform="scale(0.015625)"/>
       <path id="MicrosoftYaHei-5747" d="M 2244 2803 
Q 2931 3953 3338 5322 
L 3838 5172 
Q 3691 4744 3531 4347 
L 6013 4347 
Q 5925 1053 5875 297 
Q 5831 -697 4806 -697 
Q 4188 -697 3706 -672 
Q 3669 -422 3606 -141 
L 3625 -141 
Q 4250 -209 4775 -209 
Q 5350 -209 5394 378 
Q 5456 1447 5513 3891 
L 3341 3891 
Q 3028 3172 2675 2572 
Q 2481 2691 2244 2803 
z
M 81 428 
Q 559 600 1006 769 
L 1006 3253 
L 169 3253 
L 169 3697 
L 1006 3697 
L 1006 5259 
L 1469 5259 
L 1469 3697 
L 2281 3697 
L 2281 3253 
L 1469 3253 
L 1469 947 
Q 1922 1125 2338 1303 
Q 2350 991 2369 784 
Q 1363 403 250 -53 
L 81 428 
z
M 2513 853 
Q 3769 1353 5119 1934 
Q 5150 1641 5188 1434 
Q 4031 947 2706 359 
L 2513 853 
z
M 3138 2909 
L 3481 3216 
Q 4025 2716 4531 2216 
L 4125 1859 
Q 3644 2409 3138 2909 
z
" transform="scale(0.015625)"/>
       <path id="MicrosoftYaHei-52" d="M 4159 0 
L 3422 0 
L 2619 1344 
Q 2378 1747 2178 1892 
Q 1978 2038 1700 2038 
L 1250 2038 
L 1250 0 
L 625 0 
L 625 4841 
L 2100 4841 
Q 2806 4841 3206 4500 
Q 3606 4159 3606 3547 
Q 3606 2541 2531 2241 
L 2531 2225 
Q 2731 2141 2876 1984 
Q 3022 1828 3253 1450 
L 4159 0 
z
M 1250 4294 
L 1250 2584 
L 1988 2584 
Q 2416 2584 2683 2834 
Q 2950 3084 2950 3491 
Q 2950 3869 2706 4081 
Q 2463 4294 1997 4294 
L 1250 4294 
z
" transform="scale(0.015625)"/>
       <path id="MicrosoftYaHei-4d" d="M 5003 0 
L 5003 3206 
Q 5003 3603 5050 4159 
L 5034 4159 
Q 4953 3809 4891 3672 
L 3294 0 
L 2947 0 
L 1353 3644 
Q 1297 3769 1209 4159 
L 1191 4159 
Q 1222 3822 1222 3178 
L 1222 0 
L 625 0 
L 625 4841 
L 1472 4841 
L 2900 1522 
Q 3063 1141 3116 928 
L 3138 928 
Q 3300 1375 3366 1534 
L 4819 4841 
L 5625 4841 
L 5625 0 
L 5003 0 
z
" transform="scale(0.015625)"/>
       <path id="MicrosoftYaHei-53" d="M 400 909 
Q 622 716 994 591 
Q 1366 466 1700 466 
Q 2719 466 2719 1191 
Q 2719 1394 2609 1556 
Q 2500 1719 2309 1844 
Q 2119 1969 1594 2228 
Q 866 2591 634 2902 
Q 403 3213 403 3613 
Q 403 4216 887 4569 
Q 1372 4922 2109 4922 
Q 2831 4922 3169 4747 
L 3169 4066 
Q 2731 4369 2063 4369 
Q 1619 4369 1339 4183 
Q 1059 3997 1059 3666 
Q 1059 3372 1253 3187 
Q 1447 3003 2094 2684 
Q 2806 2344 3090 2003 
Q 3375 1663 3375 1238 
Q 3375 600 2912 259 
Q 2450 -81 1628 -81 
Q 1341 -81 958 -1 
Q 575 78 400 197 
L 400 909 
z
" transform="scale(0.015625)"/>
       <path id="MicrosoftYaHei-44" d="M 625 0 
L 625 4841 
L 2006 4841 
Q 3106 4841 3836 4200 
Q 4566 3559 4566 2481 
Q 4566 1356 3836 678 
Q 3106 0 1956 0 
L 625 0 
z
M 1250 4284 
L 1250 553 
L 1953 553 
Q 2875 553 3392 1056 
Q 3909 1559 3909 2466 
Q 3909 3372 3378 3828 
Q 2847 4284 1981 4284 
L 1250 4284 
z
" transform="scale(0.015625)"/>
       <path id="MicrosoftYaHei-ff08" d="M 5288 -1100 
Q 4172 119 4172 1850 
Q 4172 3603 5288 4838 
L 5825 4838 
Q 4716 3572 4716 1856 
Q 4716 166 5819 -1100 
L 5288 -1100 
z
" transform="scale(0.015625)"/>
       <path id="MicrosoftYaHei-c5" d="M 4431 0 
L 3741 0 
L 3244 1325 
L 1228 1325 
L 763 0 
L 72 0 
L 1850 4669 
Q 1525 4834 1525 5225 
Q 1525 5503 1733 5695 
Q 1941 5888 2256 5888 
Q 2559 5888 2756 5702 
Q 2953 5516 2953 5225 
Q 2953 4834 2644 4669 
L 4431 0 
z
M 1856 5225 
Q 1856 4847 2247 4847 
Q 2441 4847 2531 4953 
Q 2622 5059 2622 5225 
Q 2622 5391 2511 5492 
Q 2400 5594 2238 5594 
Q 2069 5594 1962 5489 
Q 1856 5384 1856 5225 
z
M 3050 1878 
L 2316 3884 
Q 2288 3966 2253 4219 
L 2238 4219 
Q 2194 4006 2150 3884 
L 1425 1878 
L 3050 1878 
z
" transform="scale(0.015625)"/>
       <path id="MicrosoftYaHei-ff09" d="M 1113 -1100 
L 575 -1100 
Q 1684 163 1684 1888 
Q 1684 3581 581 4838 
L 1113 4838 
Q 2222 3628 2222 1888 
Q 2222 128 1113 -1100 
z
" transform="scale(0.015625)"/>
      </defs>
      <use xlink:href="#MicrosoftYaHei-94fe"/>
      <use xlink:href="#MicrosoftYaHei-7ea7" x="100"/>
      <use xlink:href="#MicrosoftYaHei-5e73" x="200"/>
      <use xlink:href="#MicrosoftYaHei-5747" x="300"/>
      <use xlink:href="#MicrosoftYaHei-20" x="400"/>
      <use xlink:href="#MicrosoftYaHei-52" x="429.589844"/>
      <use xlink:href="#MicrosoftYaHei-4d" x="494.873047"/>
      <use xlink:href="#MicrosoftYaHei-53" x="592.578125"/>
      <use xlink:href="#MicrosoftYaHei-44" x="650.292969"/>
      <use xlink:href="#MicrosoftYaHei-ff08" x="726.464844"/>
      <use xlink:href="#MicrosoftYaHei-c5" x="826.464844"/>
      <use xlink:href="#MicrosoftYaHei-ff09" x="896.826172"/>
     </g>
    </g>
   </g>
   <g id="patch_3">
    <path d="M 62.982159 327.44 
L 100.57518 327.44 
L 100.57518 259.868836 
L 62.982159 259.868836 
z
" clip-path="url(#pf46728a31b)" style="fill: #64748b"/>
   </g>
   <g id="patch_4">
    <path d="M 170.390789 327.44 
L 207.98381 327.44 
L 207.98381 245.019478 
L 170.390789 245.019478 
z
" clip-path="url(#pf46728a31b)" style="fill: #64748b"/>
   </g>
   <g id="patch_5">
    <path d="M 277.79942 327.44 
L 315.39244 327.44 
L 315.39244 174.168855 
L 277.79942 174.168855 
z
" clip-path="url(#pf46728a31b)" style="fill: #64748b"/>
   </g>
   <g id="patch_6">
    <path d="M 385.20805 327.44 
L 422.80107 327.44 
L 422.80107 218.431814 
L 385.20805 218.431814 
z
" clip-path="url(#pf46728a31b)" style="fill: #64748b"/>
   </g>
   <g id="patch_7">
    <path d="M 100.57518 327.44 
L 138.1682 327.44 
L 138.1682 267.711089 
L 100.57518 267.711089 
z
" clip-path="url(#pf46728a31b)" style="fill: #2563eb"/>
   </g>
   <g id="patch_8">
    <path d="M 207.98381 327.44 
L 245.57683 327.44 
L 245.57683 247.068065 
L 207.98381 247.068065 
z
" clip-path="url(#pf46728a31b)" style="fill: #2563eb"/>
   </g>
   <g id="patch_9">
    <path d="M 315.39244 327.44 
L 352.985461 327.44 
L 352.985461 175.782973 
L 315.39244 175.782973 
z
" clip-path="url(#pf46728a31b)" style="fill: #2563eb"/>
   </g>
   <g id="patch_10">
    <path d="M 422.80107 327.44 
L 460.394091 327.44 
L 460.394091 218.432427 
L 422.80107 218.432427 
z
" clip-path="url(#pf46728a31b)" style="fill: #2563eb"/>
   </g>
   <g id="patch_11">
    <path d="M 43.111563 327.44 
L 43.111563 94.326 
" style="fill: none; stroke: #000000; stroke-width: 0.8; stroke-linejoin: miter; stroke-linecap: square"/>
   </g>
   <g id="patch_12">
    <path d="M 480.264687 327.44 
L 480.264687 94.326 
" style="fill: none; stroke: #000000; stroke-width: 0.8; stroke-linejoin: miter; stroke-linecap: square"/>
   </g>
   <g id="patch_13">
    <path d="M 43.111563 327.44 
L 480.264687 327.44 
" style="fill: none; stroke: #000000; stroke-width: 0.8; stroke-linejoin: miter; stroke-linecap: square"/>
   </g>
   <g id="patch_14">
    <path d="M 43.111563 94.326 
L 480.264687 94.326 
" style="fill: none; stroke: #000000; stroke-width: 0.8; stroke-linejoin: miter; stroke-linecap: square"/>
   </g>
   <g id="text_11">
    <!-- 6.67 -->
    <g style="fill: #334155" transform="translate(73.278669 254.755789) scale(0.085 -0.085)">
     <defs>
      <path id="MicrosoftYaHei-36" d="M 3181 4219 
Q 2803 4413 2391 4413 
Q 1763 4413 1381 3866 
Q 1000 3319 994 2372 
L 1009 2372 
Q 1353 3038 2106 3038 
Q 2734 3038 3109 2628 
Q 3484 2219 3484 1541 
Q 3484 831 3051 375 
Q 2619 -81 1947 -81 
Q 1209 -81 789 495 
Q 369 1072 369 2131 
Q 369 3413 920 4167 
Q 1472 4922 2372 4922 
Q 2888 4922 3181 4781 
L 3181 4219 
z
M 1031 1584 
Q 1031 1106 1286 765 
Q 1541 425 1963 425 
Q 2363 425 2613 719 
Q 2863 1013 2863 1475 
Q 2863 1975 2627 2253 
Q 2391 2531 1956 2531 
Q 1544 2531 1287 2250 
Q 1031 1969 1031 1584 
z
" transform="scale(0.015625)"/>
      <path id="MicrosoftYaHei-2e" d="M 372 322 
Q 372 491 487 606 
Q 603 722 775 722 
Q 950 722 1065 605 
Q 1181 488 1181 322 
Q 1181 159 1065 42 
Q 950 -75 772 -75 
Q 600 -75 486 42 
Q 372 159 372 322 
z
" transform="scale(0.015625)"/>
     </defs>
     <use xlink:href="#MicrosoftYaHei-36"/>
     <use xlink:href="#MicrosoftYaHei-2e" x="58.642578"/>
     <use xlink:href="#MicrosoftYaHei-36" x="82.714844"/>
     <use xlink:href="#MicrosoftYaHei-37" x="141.357422"/>
    </g>
   </g>
   <g id="text_12">
    <!-- 8.13 -->
    <g style="fill: #334155" transform="translate(180.6873 239.906431) scale(0.085 -0.085)">
     <defs>
      <path id="MicrosoftYaHei-38" d="M 306 1350 
Q 306 1769 556 2122 
Q 806 2475 1200 2625 
Q 884 2803 700 3081 
Q 516 3359 516 3684 
Q 516 4028 692 4312 
Q 869 4597 1183 4759 
Q 1497 4922 1875 4922 
Q 2256 4922 2572 4761 
Q 2888 4600 3063 4315 
Q 3238 4031 3238 3684 
Q 3238 3366 3058 3086 
Q 2878 2806 2559 2625 
Q 2953 2472 3200 2119 
Q 3447 1766 3447 1350 
Q 3447 938 3250 611 
Q 3053 284 2690 103 
Q 2328 -78 1875 -78 
Q 1425 -78 1065 103 
Q 706 284 506 612 
Q 306 941 306 1350 
z
M 906 1378 
Q 906 947 1172 687 
Q 1438 428 1878 428 
Q 2309 428 2582 692 
Q 2856 956 2856 1378 
Q 2856 1778 2579 2051 
Q 2303 2325 1878 2325 
Q 1456 2325 1181 2058 
Q 906 1791 906 1378 
z
M 1081 3634 
Q 1081 3309 1312 3076 
Q 1544 2844 1878 2844 
Q 2206 2844 2445 3078 
Q 2684 3313 2684 3634 
Q 2684 3963 2454 4191 
Q 2225 4419 1878 4419 
Q 1534 4419 1307 4195 
Q 1081 3972 1081 3634 
z
" transform="scale(0.015625)"/>
      <path id="MicrosoftYaHei-33" d="M 447 809 
Q 944 425 1569 425 
Q 2069 425 2361 670 
Q 2653 916 2653 1328 
Q 2653 2247 1338 2247 
L 934 2247 
L 934 2753 
L 1319 2753 
Q 2484 2753 2484 3616 
Q 2484 4413 1594 4413 
Q 1084 4413 634 4069 
L 634 4647 
Q 1109 4922 1744 4922 
Q 2363 4922 2738 4598 
Q 3113 4275 3113 3759 
Q 3113 2809 2144 2538 
L 2144 2525 
Q 2669 2469 2973 2155 
Q 3278 1841 3278 1372 
Q 3278 719 2808 319 
Q 2338 -81 1556 -81 
Q 869 -81 447 175 
L 447 809 
z
" transform="scale(0.015625)"/>
     </defs>
     <use xlink:href="#MicrosoftYaHei-38"/>
     <use xlink:href="#MicrosoftYaHei-2e" x="58.642578"/>
     <use xlink:href="#MicrosoftYaHei-31" x="82.714844"/>
     <use xlink:href="#MicrosoftYaHei-33" x="141.357422"/>
    </g>
   </g>
   <g id="text_13">
    <!-- 15.12 -->
    <g style="fill: #334155" transform="translate(285.603703 169.055808) scale(0.085 -0.085)">
     <use xlink:href="#MicrosoftYaHei-31"/>
     <use xlink:href="#MicrosoftYaHei-35" x="58.642578"/>
     <use xlink:href="#MicrosoftYaHei-2e" x="117.285156"/>
     <use xlink:href="#MicrosoftYaHei-31" x="141.357422"/>
     <use xlink:href="#MicrosoftYaHei-32" x="200"/>
    </g>
   </g>
   <g id="text_14">
    <!-- 10.76 -->
    <g style="fill: #334155" transform="translate(393.012333 213.318767) scale(0.085 -0.085)">
     <use xlink:href="#MicrosoftYaHei-31"/>
     <use xlink:href="#MicrosoftYaHei-30" x="58.642578"/>
     <use xlink:href="#MicrosoftYaHei-2e" x="117.285156"/>
     <use xlink:href="#MicrosoftYaHei-37" x="141.357422"/>
     <use xlink:href="#MicrosoftYaHei-36" x="200"/>
    </g>
   </g>
   <g id="text_15">
    <!-- 5.89 -->
    <g style="fill: #334155" transform="translate(110.87169 262.598042) scale(0.085 -0.085)">
     <defs>
      <path id="MicrosoftYaHei-39" d="M 578 656 
Q 978 425 1441 425 
Q 2091 425 2448 937 
Q 2806 1450 2806 2394 
Q 2800 2388 2794 2394 
Q 2475 1788 1722 1788 
Q 1113 1788 713 2206 
Q 313 2625 313 3294 
Q 313 4006 750 4464 
Q 1188 4922 1884 4922 
Q 2606 4922 3012 4355 
Q 3419 3788 3419 2703 
Q 3419 1363 2894 641 
Q 2369 -81 1441 -81 
Q 931 -81 578 84 
L 578 656 
z
M 931 3372 
Q 931 2884 1181 2598 
Q 1431 2313 1872 2313 
Q 2253 2313 2512 2573 
Q 2772 2834 2772 3206 
Q 2772 3728 2514 4070 
Q 2256 4413 1834 4413 
Q 1444 4413 1187 4116 
Q 931 3819 931 3372 
z
" transform="scale(0.015625)"/>
     </defs>
     <use xlink:href="#MicrosoftYaHei-35"/>
     <use xlink:href="#MicrosoftYaHei-2e" x="58.642578"/>
     <use xlink:href="#MicrosoftYaHei-38" x="82.714844"/>
     <use xlink:href="#MicrosoftYaHei-39" x="141.357422"/>
    </g>
   </g>
   <g id="text_16">
    <!-- 7.93 -->
    <g style="fill: #334155" transform="translate(218.28032 241.955019) scale(0.085 -0.085)">
     <use xlink:href="#MicrosoftYaHei-37"/>
     <use xlink:href="#MicrosoftYaHei-2e" x="58.642578"/>
     <use xlink:href="#MicrosoftYaHei-39" x="82.714844"/>
     <use xlink:href="#MicrosoftYaHei-33" x="141.357422"/>
    </g>
   </g>
   <g id="text_17">
    <!-- 14.96 -->
    <g style="fill: #334155" transform="translate(323.196724 170.669926) scale(0.085 -0.085)">
     <use xlink:href="#MicrosoftYaHei-31"/>
     <use xlink:href="#MicrosoftYaHei-34" x="58.642578"/>
     <use xlink:href="#MicrosoftYaHei-2e" x="117.285156"/>
     <use xlink:href="#MicrosoftYaHei-39" x="141.357422"/>
     <use xlink:href="#MicrosoftYaHei-36" x="200"/>
    </g>
   </g>
   <g id="text_18">
    <!-- 10.76 -->
    <g style="fill: #334155" transform="translate(430.605354 213.31938) scale(0.085 -0.085)">
     <use xlink:href="#MicrosoftYaHei-31"/>
     <use xlink:href="#MicrosoftYaHei-30" x="58.642578"/>
     <use xlink:href="#MicrosoftYaHei-2e" x="117.285156"/>
     <use xlink:href="#MicrosoftYaHei-37" x="141.357422"/>
     <use xlink:href="#MicrosoftYaHei-36" x="200"/>
    </g>
   </g>
   <g id="text_19">
    <!-- 验证集 -->
    <g transform="translate(240.688125 88.326) scale(0.14 -0.14)">
     <defs>
      <path id="MicrosoftYaHei-Bold-9a8c" d="M 1138 4053 
L 969 2491 
L 1419 2491 
L 1563 4241 
L 200 4241 
L 200 4991 
L 2369 4991 
L 2163 2491 
L 2525 2491 
Q 2463 691 2413 203 
Q 2369 -553 1838 -672 
Q 1581 -709 644 -709 
Q 588 -253 519 134 
Q 906 91 1350 78 
Q 1669 78 1694 378 
Q 1731 791 1763 1741 
L 181 1741 
L 400 4053 
L 1138 4053 
z
M 5544 2647 
L 3163 2647 
L 3163 2997 
Q 2944 2797 2706 2603 
Q 2525 2991 2300 3391 
Q 3313 4134 3925 5278 
L 4875 5278 
L 4738 5053 
Q 5469 3984 6381 3466 
Q 6163 3116 5950 2691 
Q 5738 2828 5544 2984 
L 5544 2647 
z
M 2556 116 
L 4694 116 
Q 5063 1253 5250 2303 
L 6025 2103 
Q 5775 1141 5438 116 
L 6213 116 
L 6213 -634 
L 2556 -634 
L 2556 116 
z
M 3263 2172 
Q 3569 1397 3856 503 
L 3175 259 
Q 2981 978 2625 1934 
L 3263 2172 
z
M 4425 2428 
Q 4644 1584 4806 753 
L 4113 584 
Q 3988 1366 3763 2278 
L 4425 2428 
z
M 75 1216 
Q 763 1278 1525 1378 
Q 1531 984 1538 628 
Q 838 541 175 428 
L 75 1216 
z
M 4300 4347 
Q 4013 3897 3544 3384 
L 5113 3384 
Q 4663 3859 4300 4347 
z
" transform="scale(0.015625)"/>
      <path id="MicrosoftYaHei-Bold-8bc1" d="M 994 5334 
Q 1356 4822 1756 4184 
Q 1463 4028 1000 3734 
Q 663 4341 306 4903 
L 994 5334 
z
M 1875 278 
L 2388 278 
L 2388 3397 
L 3231 3397 
L 3231 278 
L 3906 278 
L 3906 4091 
L 2075 4091 
L 2075 4916 
L 6225 4916 
L 6225 4091 
L 4750 4091 
L 4750 2678 
L 6075 2678 
L 6075 1859 
L 4750 1859 
L 4750 278 
L 6300 278 
L 6300 -559 
L 1875 -559 
L 1875 278 
z
M 2019 1384 
Q 2044 1116 2169 528 
Q 1575 109 838 -516 
L 450 172 
Q 606 366 613 641 
L 613 2628 
L 113 2628 
L 113 3441 
L 1463 3441 
L 1463 947 
L 2019 1384 
z
" transform="scale(0.015625)"/>
      <path id="MicrosoftYaHei-Bold-96c6" d="M 3613 5359 
Q 3778 5066 3931 4734 
L 5963 4734 
L 5963 4197 
L 3875 4197 
L 3875 3866 
L 5738 3866 
L 5738 3366 
L 3875 3366 
L 3875 3034 
L 5738 3034 
L 5738 2534 
L 3875 2534 
L 3875 2203 
L 6050 2203 
L 6050 1653 
L 1613 1653 
L 1613 1428 
L 788 1428 
L 788 3238 
Q 619 3075 438 2922 
Q 275 3428 88 3834 
Q 844 4422 1325 5322 
L 2194 5134 
Q 2088 4928 1972 4734 
L 3044 4734 
Q 2928 4994 2806 5216 
L 3613 5359 
z
M 1613 4184 
L 1613 3866 
L 3050 3866 
L 3050 4197 
L 1619 4197 
L 1613 4184 
z
M 1613 3034 
L 3050 3034 
L 3050 3366 
L 1613 3366 
L 1613 3034 
z
M 1613 2203 
L 3050 2203 
L 3050 2534 
L 1613 2534 
L 1613 2203 
z
M 2781 1516 
L 3606 1516 
L 3606 1228 
L 6225 1228 
L 6225 628 
L 4394 628 
Q 5159 197 6313 -3 
Q 6044 -428 5875 -747 
Q 4388 -338 3606 447 
L 3606 -834 
L 2781 -834 
L 2781 394 
Q 1956 -331 519 -809 
Q 363 -484 88 -84 
Q 1284 213 2006 628 
L 225 628 
L 225 1228 
L 2781 1228 
L 2781 1516 
z
" transform="scale(0.015625)"/>
     </defs>
     <use xlink:href="#MicrosoftYaHei-Bold-9a8c"/>
     <use xlink:href="#MicrosoftYaHei-Bold-8bc1" x="100"/>
     <use xlink:href="#MicrosoftYaHei-Bold-96c6" x="200"/>
    </g>
   </g>
   <g id="legend_1">
    <g id="patch_15">
     <path d="M 53.011563 113.019125 
L 75.011562 113.019125 
L 75.011562 105.319125 
L 53.011563 105.319125 
z
" style="fill: #64748b"/>
    </g>
    <g id="text_20">
     <!-- 输入 -->
     <g transform="translate(83.811563 113.019125) scale(0.11 -0.11)">
      <defs>
       <path id="MicrosoftYaHei-8f93" d="M 625 2216 
L 1188 2216 
L 1188 3353 
L 1600 3353 
L 1600 2216 
L 2200 2216 
L 2200 1803 
L 1600 1803 
L 1600 947 
Q 1931 991 2275 1047 
Q 2244 809 2231 616 
Q 1913 572 1600 528 
L 1600 -866 
L 1188 -866 
L 1188 466 
Q 681 391 169 309 
L 100 766 
Q 638 822 1188 891 
L 1188 1803 
L 188 1803 
L 188 2234 
Q 425 2903 681 3934 
L 131 3934 
L 131 4334 
L 781 4334 
Q 888 4784 1000 5297 
L 1450 5197 
Q 1331 4741 1225 4334 
L 2356 4334 
L 2356 3934 
L 1119 3934 
Q 844 2922 625 2216 
z
M 2813 -853 
L 2413 -853 
L 2413 2828 
L 4075 2828 
L 4075 -247 
Q 4075 -797 3569 -797 
Q 3375 -797 3081 -791 
Q 3050 -653 2994 -403 
Q 3244 -422 3450 -422 
Q 3675 -422 3675 -172 
L 3675 553 
L 2813 553 
L 2813 -853 
z
M 4619 5253 
L 4513 5116 
Q 5244 4016 6344 3541 
Q 6131 3291 6019 3109 
Q 5594 3347 5231 3647 
L 5231 3334 
L 3063 3334 
L 3063 3609 
Q 2694 3303 2294 3047 
Q 2106 3291 1963 3428 
Q 3206 4153 3969 5253 
L 4619 5253 
z
M 5550 2941 
L 5975 2941 
L 5975 -103 
Q 5975 -797 5388 -803 
Q 5069 -809 4656 -791 
Q 4625 -559 4569 -322 
Q 4963 -372 5244 -372 
Q 5550 -372 5550 -47 
L 5550 2941 
z
M 4206 4791 
Q 3738 4203 3194 3728 
L 5131 3728 
Q 4600 4191 4206 4791 
z
M 4594 2641 
L 4994 2641 
L 4994 366 
L 4594 366 
L 4594 2641 
z
M 2813 903 
L 3675 903 
L 3675 1503 
L 2813 1503 
L 2813 903 
z
M 3675 2447 
L 2813 2447 
L 2813 1853 
L 3675 1853 
L 3675 2447 
z
" transform="scale(0.015625)"/>
       <path id="MicrosoftYaHei-5165" d="M 1831 4947 
L 2244 5241 
Q 2944 4809 3781 3028 
Q 4950 472 6319 -91 
L 5881 -641 
Q 4513 172 3350 2784 
Q 3256 2994 3166 3184 
Q 2441 700 469 -678 
Q 300 -428 88 -209 
Q 2116 1069 2819 3834 
Q 2328 4653 1831 4947 
z
" transform="scale(0.015625)"/>
      </defs>
      <use xlink:href="#MicrosoftYaHei-8f93"/>
      <use xlink:href="#MicrosoftYaHei-5165" x="100"/>
     </g>
    </g>
    <g id="patch_16">
     <path d="M 127.811563 113.019125 
L 149.811563 113.019125 
L 149.811563 105.319125 
L 127.811563 105.319125 
z
" style="fill: #2563eb"/>
    </g>
    <g id="text_21">
     <!-- 精修后 -->
     <g transform="translate(158.611563 113.019125) scale(0.11 -0.11)">
      <defs>
       <path id="MicrosoftYaHei-7cbe" d="M 3225 -822 
L 2775 -822 
L 2775 2347 
L 5919 2347 
L 5919 -91 
Q 5919 -772 5219 -772 
L 4200 -772 
Q 4169 -572 4106 -291 
Q 4688 -328 5063 -328 
Q 5469 -328 5469 9 
L 5469 297 
L 3225 297 
L 3225 -822 
z
M 2488 3122 
L 4106 3122 
L 4106 3553 
L 2750 3553 
L 2750 3947 
L 4106 3947 
L 4106 4366 
L 2588 4366 
L 2588 4759 
L 4106 4759 
L 4106 5322 
L 4556 5322 
L 4556 4759 
L 6200 4759 
L 6200 4366 
L 4556 4366 
L 4556 3947 
L 6013 3947 
L 6013 3553 
L 4556 3553 
L 4556 3122 
L 6288 3122 
L 6288 2728 
L 2488 2728 
L 2488 3122 
z
M 56 578 
Q 663 1497 1044 2628 
L 138 2628 
L 138 3028 
L 1094 3028 
L 1094 5303 
L 1506 5303 
L 1506 3028 
L 2313 3028 
L 2313 2628 
L 1506 2628 
L 1506 1853 
L 1738 2041 
Q 2263 1534 2581 1166 
L 2256 866 
Q 1863 1347 1506 1722 
L 1506 -847 
L 1094 -847 
L 1094 1784 
Q 731 841 250 72 
Q 150 353 56 578 
z
M 5469 1947 
L 3225 1947 
L 3225 1509 
L 5469 1509 
L 5469 1947 
z
M 3225 684 
L 5469 684 
L 5469 1122 
L 3225 1122 
L 3225 684 
z
M 1625 3559 
Q 1900 4166 2081 4834 
L 2481 4691 
Q 2250 3997 1994 3397 
L 1625 3559 
z
M 150 4709 
L 519 4841 
Q 744 4209 944 3572 
L 550 3409 
Q 338 4172 150 4709 
z
" transform="scale(0.015625)"/>
       <path id="MicrosoftYaHei-4fee" d="M 2363 3553 
Q 3131 4359 3531 5316 
L 3981 5178 
Q 3859 4919 3725 4678 
L 5788 4678 
L 5788 4284 
Q 5353 3653 4741 3175 
Q 5366 2850 6313 2684 
Q 6213 2522 6094 2222 
Q 4959 2506 4338 2894 
Q 3653 2459 2588 2084 
Q 2469 2284 2325 2491 
Q 3294 2747 3975 3156 
Q 3553 3497 3247 3916 
Q 2997 3566 2713 3259 
Q 2575 3397 2363 3553 
z
M 81 2278 
Q 856 3653 1238 5316 
L 1700 5228 
Q 1509 4497 1281 3856 
L 1281 -822 
L 838 -822 
L 838 2769 
Q 578 2213 281 1747 
Q 200 1997 81 2278 
z
M 5750 1103 
L 6031 759 
Q 4538 -409 2581 -884 
Q 2456 -653 2331 -478 
Q 4288 -16 5750 1103 
z
M 1775 528 
L 1775 4316 
L 2206 4316 
L 2206 528 
L 1775 528 
z
M 5188 1847 
L 5481 1509 
Q 4406 703 2913 147 
Q 2763 378 2631 534 
Q 4194 1041 5188 1847 
z
M 4581 2484 
L 4881 2166 
Q 3925 1522 2844 1141 
Q 2744 1328 2563 1516 
Q 3644 1822 4581 2484 
z
M 5219 4291 
L 3497 4291 
Q 3494 4284 3491 4278 
Q 3863 3744 4356 3413 
Q 4913 3828 5219 4291 
z
" transform="scale(0.015625)"/>
       <path id="MicrosoftYaHei-540e" d="M 1888 1984 
L 5688 1984 
L 5688 -828 
L 5188 -828 
L 5188 -403 
L 2388 -403 
L 2388 -828 
L 1888 -828 
L 1888 1984 
z
M 1313 2991 
Q 1313 1272 1138 672 
Q 963 -16 394 -847 
Q 250 -634 50 -409 
Q 494 222 650 859 
Q 806 1472 806 2659 
L 806 4766 
Q 3544 4853 5631 5141 
L 5931 4622 
Q 3344 4359 1313 4284 
L 1313 3459 
L 6263 3459 
L 6263 2991 
L 1313 2991 
z
M 5188 1528 
L 2388 1528 
L 2388 41 
L 5188 41 
L 5188 1528 
z
" transform="scale(0.015625)"/>
      </defs>
      <use xlink:href="#MicrosoftYaHei-7cbe"/>
      <use xlink:href="#MicrosoftYaHei-4fee" x="100"/>
      <use xlink:href="#MicrosoftYaHei-540e" x="200"/>
     </g>
    </g>
   </g>
  </g>
  <g id="axes_2">
   <g id="patch_17">
    <path d="M 495.644688 327.44 
L 932.797812 327.44 
L 932.797812 94.326 
L 495.644688 94.326 
z
" style="fill: #ffffff"/>
   </g>
   <g id="matplotlib.axis_3">
    <g id="xtick_5">
     <g id="line2d_15">
      <g>
       <use xlink:href="#m41746ccc53" x="553.108305" y="327.44" style="stroke: #000000; stroke-width: 0.8"/>
      </g>
     </g>
     <g id="text_22">
      <!-- ≤50 nt -->
      <g transform="translate(535.512602 343.233125) scale(0.11 -0.11)">
       <use xlink:href="#MicrosoftYaHei-2264"/>
       <use xlink:href="#MicrosoftYaHei-35" x="74.169922"/>
       <use xlink:href="#MicrosoftYaHei-30" x="132.8125"/>
       <use xlink:href="#MicrosoftYaHei-20" x="191.455078"/>
       <use xlink:href="#MicrosoftYaHei-6e" x="221.044922"/>
       <use xlink:href="#MicrosoftYaHei-74" x="282.666016"/>
      </g>
      <!-- (n=23) -->
      <g transform="translate(535.51432 356.519406) scale(0.11 -0.11)">
       <use xlink:href="#MicrosoftYaHei-28"/>
       <use xlink:href="#MicrosoftYaHei-6e" x="33.398438"/>
       <use xlink:href="#MicrosoftYaHei-3d" x="95.019531"/>
       <use xlink:href="#MicrosoftYaHei-32" x="169.189453"/>
       <use xlink:href="#MicrosoftYaHei-33" x="227.832031"/>
       <use xlink:href="#MicrosoftYaHei-29" x="286.474609"/>
      </g>
     </g>
    </g>
    <g id="xtick_6">
     <g id="line2d_16">
      <g>
       <use xlink:href="#m41746ccc53" x="660.516935" y="327.44" style="stroke: #000000; stroke-width: 0.8"/>
      </g>
     </g>
     <g id="text_23">
      <!-- 51–100 nt -->
      <g transform="translate(634.354982 343.233125) scale(0.11 -0.11)">
       <use xlink:href="#MicrosoftYaHei-35"/>
       <use xlink:href="#MicrosoftYaHei-31" x="58.642578"/>
       <use xlink:href="#MicrosoftYaHei-2013" x="117.285156"/>
       <use xlink:href="#MicrosoftYaHei-31" x="171.289062"/>
       <use xlink:href="#MicrosoftYaHei-30" x="229.931641"/>
       <use xlink:href="#MicrosoftYaHei-30" x="288.574219"/>
       <use xlink:href="#MicrosoftYaHei-20" x="347.216797"/>
       <use xlink:href="#MicrosoftYaHei-6e" x="376.806641"/>
       <use xlink:href="#MicrosoftYaHei-74" x="438.427734"/>
      </g>
      <!-- (n=18) -->
      <g transform="translate(642.922951 356.519406) scale(0.11 -0.11)">
       <use xlink:href="#MicrosoftYaHei-28"/>
       <use xlink:href="#MicrosoftYaHei-6e" x="33.398438"/>
       <use xlink:href="#MicrosoftYaHei-3d" x="95.019531"/>
       <use xlink:href="#MicrosoftYaHei-31" x="169.189453"/>
       <use xlink:href="#MicrosoftYaHei-38" x="227.832031"/>
       <use xlink:href="#MicrosoftYaHei-29" x="286.474609"/>
      </g>
     </g>
    </g>
    <g id="xtick_7">
     <g id="line2d_17">
      <g>
       <use xlink:href="#m41746ccc53" x="767.925565" y="327.44" style="stroke: #000000; stroke-width: 0.8"/>
      </g>
     </g>
     <g id="text_24">
      <!-- 101–200 nt -->
      <g transform="translate(738.538378 343.233125) scale(0.11 -0.11)">
       <use xlink:href="#MicrosoftYaHei-31"/>
       <use xlink:href="#MicrosoftYaHei-30" x="58.642578"/>
       <use xlink:href="#MicrosoftYaHei-31" x="117.285156"/>
       <use xlink:href="#MicrosoftYaHei-2013" x="175.927734"/>
       <use xlink:href="#MicrosoftYaHei-32" x="229.931641"/>
       <use xlink:href="#MicrosoftYaHei-30" x="288.574219"/>
       <use xlink:href="#MicrosoftYaHei-30" x="347.216797"/>
       <use xlink:href="#MicrosoftYaHei-20" x="405.859375"/>
       <use xlink:href="#MicrosoftYaHei-6e" x="435.449219"/>
       <use xlink:href="#MicrosoftYaHei-74" x="497.070312"/>
      </g>
      <!-- (n=7) -->
      <g transform="translate(753.556815 356.519406) scale(0.11 -0.11)">
       <use xlink:href="#MicrosoftYaHei-28"/>
       <use xlink:href="#MicrosoftYaHei-6e" x="33.398438"/>
       <use xlink:href="#MicrosoftYaHei-3d" x="95.019531"/>
       <use xlink:href="#MicrosoftYaHei-37" x="169.189453"/>
       <use xlink:href="#MicrosoftYaHei-29" x="227.832031"/>
      </g>
     </g>
    </g>
    <g id="xtick_8">
     <g id="line2d_18">
      <g>
       <use xlink:href="#m41746ccc53" x="875.334195" y="327.44" style="stroke: #000000; stroke-width: 0.8"/>
      </g>
     </g>
     <g id="text_25">
      <!-- &gt;200 nt -->
      <g transform="translate(854.513258 343.233125) scale(0.11 -0.11)">
       <use xlink:href="#MicrosoftYaHei-3e"/>
       <use xlink:href="#MicrosoftYaHei-32" x="74.169922"/>
       <use xlink:href="#MicrosoftYaHei-30" x="132.8125"/>
       <use xlink:href="#MicrosoftYaHei-30" x="191.455078"/>
       <use xlink:href="#MicrosoftYaHei-20" x="250.097656"/>
       <use xlink:href="#MicrosoftYaHei-6e" x="279.6875"/>
       <use xlink:href="#MicrosoftYaHei-74" x="341.308594"/>
      </g>
      <!-- (n=19) -->
      <g transform="translate(857.740211 356.519406) scale(0.11 -0.11)">
       <use xlink:href="#MicrosoftYaHei-28"/>
       <use xlink:href="#MicrosoftYaHei-6e" x="33.398438"/>
       <use xlink:href="#MicrosoftYaHei-3d" x="95.019531"/>
       <use xlink:href="#MicrosoftYaHei-31" x="169.189453"/>
       <use xlink:href="#MicrosoftYaHei-39" x="227.832031"/>
       <use xlink:href="#MicrosoftYaHei-29" x="286.474609"/>
      </g>
     </g>
    </g>
   </g>
   <g id="matplotlib.axis_4">
    <g id="ytick_6">
     <g id="line2d_19">
      <path d="M 495.644688 327.44 
L 932.797812 327.44 
" clip-path="url(#p57a38e2973)" style="fill: none; stroke: #b0b0b0; stroke-opacity: 0.2; stroke-width: 0.8; stroke-linecap: square"/>
     </g>
     <g id="line2d_20">
      <g>
       <use xlink:href="#m29009faaee" x="495.644688" y="327.44" style="stroke: #000000; stroke-width: 0.8"/>
      </g>
     </g>
    </g>
    <g id="ytick_7">
     <g id="line2d_21">
      <path d="M 495.644688 276.763043 
L 932.797812 276.763043 
" clip-path="url(#p57a38e2973)" style="fill: none; stroke: #b0b0b0; stroke-opacity: 0.2; stroke-width: 0.8; stroke-linecap: square"/>
     </g>
     <g id="line2d_22">
      <g>
       <use xlink:href="#m29009faaee" x="495.644688" y="276.763043" style="stroke: #000000; stroke-width: 0.8"/>
      </g>
     </g>
    </g>
    <g id="ytick_8">
     <g id="line2d_23">
      <path d="M 495.644688 226.086087 
L 932.797812 226.086087 
" clip-path="url(#p57a38e2973)" style="fill: none; stroke: #b0b0b0; stroke-opacity: 0.2; stroke-width: 0.8; stroke-linecap: square"/>
     </g>
     <g id="line2d_24">
      <g>
       <use xlink:href="#m29009faaee" x="495.644688" y="226.086087" style="stroke: #000000; stroke-width: 0.8"/>
      </g>
     </g>
    </g>
    <g id="ytick_9">
     <g id="line2d_25">
      <path d="M 495.644688 175.40913 
L 932.797812 175.40913 
" clip-path="url(#p57a38e2973)" style="fill: none; stroke: #b0b0b0; stroke-opacity: 0.2; stroke-width: 0.8; stroke-linecap: square"/>
     </g>
     <g id="line2d_26">
      <g>
       <use xlink:href="#m29009faaee" x="495.644688" y="175.40913" style="stroke: #000000; stroke-width: 0.8"/>
      </g>
     </g>
    </g>
    <g id="ytick_10">
     <g id="line2d_27">
      <path d="M 495.644688 124.732174 
L 932.797812 124.732174 
" clip-path="url(#p57a38e2973)" style="fill: none; stroke: #b0b0b0; stroke-opacity: 0.2; stroke-width: 0.8; stroke-linecap: square"/>
     </g>
     <g id="line2d_28">
      <g>
       <use xlink:href="#m29009faaee" x="495.644688" y="124.732174" style="stroke: #000000; stroke-width: 0.8"/>
      </g>
     </g>
    </g>
   </g>
   <g id="patch_18">
    <path d="M 515.515284 327.44 
L 553.108305 327.44 
L 553.108305 275.863574 
L 515.515284 275.863574 
z
" clip-path="url(#p57a38e2973)" style="fill: #64748b"/>
   </g>
   <g id="patch_19">
    <path d="M 622.923914 327.44 
L 660.516935 327.44 
L 660.516935 279.79418 
L 622.923914 279.79418 
z
" clip-path="url(#p57a38e2973)" style="fill: #64748b"/>
   </g>
   <g id="patch_20">
    <path d="M 730.332545 327.44 
L 767.925565 327.44 
L 767.925565 125.662813 
L 730.332545 125.662813 
z
" clip-path="url(#p57a38e2973)" style="fill: #64748b"/>
   </g>
   <g id="patch_21">
    <path d="M 837.741175 327.44 
L 875.334195 327.44 
L 875.334195 134.367894 
L 837.741175 134.367894 
z
" clip-path="url(#p57a38e2973)" style="fill: #64748b"/>
   </g>
   <g id="patch_22">
    <path d="M 553.108305 327.44 
L 590.701325 327.44 
L 590.701325 277.555072 
L 553.108305 277.555072 
z
" clip-path="url(#p57a38e2973)" style="fill: #2563eb"/>
   </g>
   <g id="patch_23">
    <path d="M 660.516935 327.44 
L 698.109955 327.44 
L 698.109955 280.036526 
L 660.516935 280.036526 
z
" clip-path="url(#p57a38e2973)" style="fill: #2563eb"/>
   </g>
   <g id="patch_24">
    <path d="M 767.925565 327.44 
L 805.518586 327.44 
L 805.518586 126.516077 
L 767.925565 126.516077 
z
" clip-path="url(#p57a38e2973)" style="fill: #2563eb"/>
   </g>
   <g id="patch_25">
    <path d="M 875.334195 327.44 
L 912.927216 327.44 
L 912.927216 134.444904 
L 875.334195 134.444904 
z
" clip-path="url(#p57a38e2973)" style="fill: #2563eb"/>
   </g>
   <g id="patch_26">
    <path d="M 495.644688 327.44 
L 495.644688 94.326 
" style="fill: none; stroke: #000000; stroke-width: 0.8; stroke-linejoin: miter; stroke-linecap: square"/>
   </g>
   <g id="patch_27">
    <path d="M 932.797812 327.44 
L 932.797812 94.326 
" style="fill: none; stroke: #000000; stroke-width: 0.8; stroke-linejoin: miter; stroke-linecap: square"/>
   </g>
   <g id="patch_28">
    <path d="M 495.644688 327.44 
L 932.797812 327.44 
" style="fill: none; stroke: #000000; stroke-width: 0.8; stroke-linejoin: miter; stroke-linecap: square"/>
   </g>
   <g id="patch_29">
    <path d="M 495.644688 94.326 
L 932.797812 94.326 
" style="fill: none; stroke: #000000; stroke-width: 0.8; stroke-linejoin: miter; stroke-linecap: square"/>
   </g>
   <g id="text_26">
    <!-- 5.09 -->
    <g style="fill: #334155" transform="translate(525.811794 270.750527) scale(0.085 -0.085)">
     <use xlink:href="#MicrosoftYaHei-35"/>
     <use xlink:href="#MicrosoftYaHei-2e" x="58.642578"/>
     <use xlink:href="#MicrosoftYaHei-30" x="82.714844"/>
     <use xlink:href="#MicrosoftYaHei-39" x="141.357422"/>
    </g>
   </g>
   <g id="text_27">
    <!-- 4.70 -->
    <g style="fill: #334155" transform="translate(633.220425 274.681133) scale(0.085 -0.085)">
     <use xlink:href="#MicrosoftYaHei-34"/>
     <use xlink:href="#MicrosoftYaHei-2e" x="58.642578"/>
     <use xlink:href="#MicrosoftYaHei-37" x="82.714844"/>
     <use xlink:href="#MicrosoftYaHei-30" x="141.357422"/>
    </g>
   </g>
   <g id="text_28">
    <!-- 19.91 -->
    <g style="fill: #334155" transform="translate(738.136828 120.549766) scale(0.085 -0.085)">
     <use xlink:href="#MicrosoftYaHei-31"/>
     <use xlink:href="#MicrosoftYaHei-39" x="58.642578"/>
     <use xlink:href="#MicrosoftYaHei-2e" x="117.285156"/>
     <use xlink:href="#MicrosoftYaHei-39" x="141.357422"/>
     <use xlink:href="#MicrosoftYaHei-31" x="200"/>
    </g>
   </g>
   <g id="text_29">
    <!-- 19.05 -->
    <g style="fill: #334155" transform="translate(845.545458 129.254847) scale(0.085 -0.085)">
     <use xlink:href="#MicrosoftYaHei-31"/>
     <use xlink:href="#MicrosoftYaHei-39" x="58.642578"/>
     <use xlink:href="#MicrosoftYaHei-2e" x="117.285156"/>
     <use xlink:href="#MicrosoftYaHei-30" x="141.357422"/>
     <use xlink:href="#MicrosoftYaHei-35" x="200"/>
    </g>
   </g>
   <g id="text_30">
    <!-- 4.92 -->
    <g style="fill: #334155" transform="translate(563.404815 272.442025) scale(0.085 -0.085)">
     <use xlink:href="#MicrosoftYaHei-34"/>
     <use xlink:href="#MicrosoftYaHei-2e" x="58.642578"/>
     <use xlink:href="#MicrosoftYaHei-39" x="82.714844"/>
     <use xlink:href="#MicrosoftYaHei-32" x="141.357422"/>
    </g>
   </g>
   <g id="text_31">
    <!-- 4.68 -->
    <g style="fill: #334155" transform="translate(670.813445 274.923479) scale(0.085 -0.085)">
     <use xlink:href="#MicrosoftYaHei-34"/>
     <use xlink:href="#MicrosoftYaHei-2e" x="58.642578"/>
     <use xlink:href="#MicrosoftYaHei-36" x="82.714844"/>
     <use xlink:href="#MicrosoftYaHei-38" x="141.357422"/>
    </g>
   </g>
   <g id="text_32">
    <!-- 19.82 -->
    <g style="fill: #334155" transform="translate(775.729849 121.40303) scale(0.085 -0.085)">
     <use xlink:href="#MicrosoftYaHei-31"/>
     <use xlink:href="#MicrosoftYaHei-39" x="58.642578"/>
     <use xlink:href="#MicrosoftYaHei-2e" x="117.285156"/>
     <use xlink:href="#MicrosoftYaHei-38" x="141.357422"/>
     <use xlink:href="#MicrosoftYaHei-32" x="200"/>
    </g>
   </g>
   <g id="text_33">
    <!-- 19.04 -->
    <g style="fill: #334155" transform="translate(883.138479 129.331857) scale(0.085 -0.085)">
     <use xlink:href="#MicrosoftYaHei-31"/>
     <use xlink:href="#MicrosoftYaHei-39" x="58.642578"/>
     <use xlink:href="#MicrosoftYaHei-2e" x="117.285156"/>
     <use xlink:href="#MicrosoftYaHei-30" x="141.357422"/>
     <use xlink:href="#MicrosoftYaHei-34" x="200"/>
    </g>
   </g>
   <g id="text_34">
    <!-- 测试集 -->
    <g transform="translate(693.22125 88.326) scale(0.14 -0.14)">
     <defs>
      <path id="MicrosoftYaHei-Bold-6d4b" d="M 1706 1084 
L 1706 4475 
L 1144 3866 
Q 738 4272 238 4709 
L 750 5284 
Q 1191 4966 1706 4513 
L 1706 5016 
L 4113 5016 
L 4113 1116 
L 3463 1116 
L 3463 4328 
L 2356 4328 
L 2356 1084 
L 1706 1084 
z
M 5344 5234 
L 6069 5234 
L 6069 59 
Q 6069 -272 5926 -465 
Q 5784 -659 5550 -707 
Q 5316 -756 4600 -747 
Q 4550 -328 4406 128 
Q 4750 91 5063 91 
Q 5344 91 5344 428 
L 5344 5234 
z
M 4406 4772 
L 5044 4772 
L 5044 591 
L 4406 591 
L 4406 4772 
z
M 2619 3903 
L 3194 3903 
L 3194 2297 
Q 3194 1259 2953 609 
L 3369 934 
Q 3900 384 4350 -134 
L 3731 -622 
Q 3338 -56 2900 478 
Q 2613 -209 1900 -841 
Q 1613 -428 1369 -166 
Q 2081 331 2350 920 
Q 2619 1509 2619 2428 
L 2619 3903 
z
M 600 3622 
Q 1088 3266 1588 2834 
L 1025 2159 
Q 656 2516 88 3028 
L 600 3622 
z
M 813 1834 
Q 1256 1647 1594 1541 
L 1000 -822 
Q 556 -659 200 -566 
Q 525 466 813 1834 
z
" transform="scale(0.015625)"/>
      <path id="MicrosoftYaHei-Bold-8bd5" d="M 1800 4116 
L 4075 4116 
L 4050 5309 
L 4900 5309 
L 4916 4116 
L 5531 4116 
Q 5141 4644 4944 4859 
L 5469 5272 
Q 5881 4841 6163 4491 
L 5678 4116 
L 6250 4116 
L 6250 3291 
L 4944 3291 
Q 4984 2300 5059 1623 
Q 5134 947 5218 592 
Q 5303 238 5334 183 
Q 5366 128 5419 128 
Q 5528 156 5613 1116 
Q 6038 947 6344 853 
Q 6213 -203 5994 -531 
Q 5775 -859 5406 -859 
Q 5019 -859 4773 -604 
Q 4528 -350 4362 459 
Q 4197 1269 4106 3291 
L 1800 3291 
L 1800 4116 
z
M 931 5259 
Q 1356 4697 1725 4116 
L 994 3672 
Q 663 4278 256 4859 
L 931 5259 
z
M 1894 2641 
L 3950 2641 
L 3950 1828 
L 3338 1828 
L 3338 522 
L 4088 634 
Q 4063 41 4075 -234 
Q 3675 -291 1956 -578 
L 1838 -41 
Q 1256 -469 919 -803 
L 469 -191 
Q 631 16 631 334 
L 631 2528 
L 100 2528 
L 100 3341 
L 1456 3341 
L 1456 703 
Q 1706 891 2044 1122 
Q 2053 956 2134 350 
L 2513 403 
L 2513 1828 
L 1894 1828 
L 1894 2641 
z
" transform="scale(0.015625)"/>
     </defs>
     <use xlink:href="#MicrosoftYaHei-Bold-6d4b"/>
     <use xlink:href="#MicrosoftYaHei-Bold-8bd5" x="100"/>
     <use xlink:href="#MicrosoftYaHei-Bold-96c6" x="200"/>
    </g>
   </g>
  </g>
  <g id="text_35">
   <!-- 按链长分层：精修前后 RMSD｜epoch 49 -->
   <g transform="translate(307.841016 21.434844) scale(0.17 -0.17)">
    <defs>
     <path id="MicrosoftYaHei-Bold-6309" d="M 3506 5178 
L 4431 5359 
L 4684 4641 
L 6138 4641 
L 6138 3266 
L 5300 3266 
L 5300 3878 
L 3125 3878 
L 3125 3291 
L 2288 3291 
L 2288 4641 
L 3713 4641 
Q 3594 4991 3506 5178 
z
M 175 4147 
L 800 4147 
L 800 5303 
L 1625 5303 
L 1625 4147 
L 2075 4147 
L 2075 3347 
L 1625 3347 
L 1625 2416 
Q 1825 2469 2025 2528 
Q 2006 2016 2038 1678 
L 1625 1569 
L 1625 3 
Q 1625 -216 1565 -373 
Q 1506 -531 1397 -622 
Q 1288 -713 1148 -753 
Q 1009 -794 275 -816 
Q 219 -372 113 16 
Q 322 -3 488 -3 
Q 672 -3 736 62 
Q 800 128 800 291 
L 800 1338 
L 225 1172 
L 81 2059 
Q 438 2128 800 2209 
L 800 3347 
L 175 3347 
L 175 4147 
z
M 6275 2116 
L 5709 2116 
Q 5500 1206 4975 559 
Q 5578 238 6275 -159 
L 5775 -884 
Q 5075 -409 4397 -6 
Q 3594 -634 2344 -891 
Q 2150 -491 1881 -103 
Q 2897 78 3569 466 
Q 2969 788 2394 1053 
Q 2688 1541 2928 2116 
L 2188 2116 
L 2188 2866 
L 3206 2866 
Q 3331 3241 3438 3647 
L 4288 3416 
L 4078 2866 
L 6275 2866 
L 6275 2116 
z
M 3400 1347 
Q 3775 1175 4209 956 
Q 4675 1441 4822 2116 
L 3766 2116 
Q 3581 1694 3400 1347 
z
" transform="scale(0.015625)"/>
     <path id="MicrosoftYaHei-Bold-94fe" d="M 3463 1566 
L 4588 1566 
L 4588 2128 
L 3488 2128 
L 3488 2797 
Q 3647 3247 3841 3966 
L 3444 3966 
L 3444 4691 
L 4028 4691 
L 4188 5347 
L 4925 5241 
Q 4850 4959 4772 4691 
L 6163 4691 
L 6163 3966 
L 4569 3966 
L 4238 2853 
L 4588 2853 
L 4588 3678 
L 5313 3678 
L 5313 2853 
L 6106 2853 
L 6106 2128 
L 5313 2128 
L 5313 1566 
L 6225 1566 
L 6225 841 
L 5313 841 
L 5313 166 
L 4588 166 
L 4588 841 
L 3463 841 
L 3463 1566 
z
M 6306 78 
Q 6156 -403 6088 -697 
L 4363 -700 
Q 3713 -694 3375 -522 
Q 3038 -350 2888 -78 
Q 2638 -434 2388 -841 
L 1966 -103 
Q 1247 -575 1000 -847 
L 575 -228 
Q 744 -28 744 347 
L 744 1372 
L 100 1372 
L 100 2078 
L 744 2078 
L 744 2709 
L 547 2709 
Q 428 2503 300 2316 
Q 194 2853 81 3316 
Q 556 4216 788 5341 
L 1525 5178 
Q 1441 4863 1347 4566 
L 2156 4566 
L 2156 3866 
L 1100 3866 
Q 1009 3634 909 3416 
L 1944 3416 
L 1944 2709 
L 1488 2709 
L 1488 2078 
L 2113 2078 
L 2113 1372 
L 1488 1372 
L 1488 428 
Q 1756 591 2025 772 
Q 2041 400 2072 106 
Q 2275 350 2469 572 
L 2469 2328 
L 2094 2328 
L 2094 3128 
L 3244 3128 
L 3244 559 
Q 3522 53 4416 53 
Q 5066 53 6306 78 
z
M 2894 5297 
Q 3125 4628 3338 3834 
L 2581 3622 
Q 2394 4403 2163 5097 
L 2894 5297 
z
" transform="scale(0.015625)"/>
     <path id="MicrosoftYaHei-Bold-957f" d="M 175 2816 
L 1031 2816 
L 1031 5322 
L 1900 5322 
L 1900 2816 
L 6194 2816 
L 6194 2009 
L 3825 2009 
Q 4563 728 6313 216 
Q 6031 -153 5681 -647 
Q 3713 172 2969 2009 
L 1900 2009 
L 1900 266 
L 3513 797 
Q 3494 359 3506 -22 
Q 1653 -588 1269 -903 
L 794 -103 
Q 1031 134 1031 628 
L 1031 2009 
L 175 2009 
L 175 2816 
z
M 5006 5272 
L 5663 4491 
Q 4338 3747 2863 3091 
L 2350 3766 
Q 4013 4547 5006 5272 
z
" transform="scale(0.015625)"/>
     <path id="MicrosoftYaHei-Bold-5206" d="M 6350 3028 
Q 6088 2703 5750 2228 
Q 5519 2409 5303 2603 
Q 5219 606 5172 190 
Q 5125 -225 4862 -451 
Q 4600 -678 4128 -678 
Q 3484 -678 2913 -659 
Q 2856 -141 2781 284 
Q 3594 216 3956 216 
Q 4172 216 4230 408 
Q 4288 600 4325 1978 
L 2781 1978 
Q 2728 1100 2529 631 
Q 2331 163 1907 -215 
Q 1484 -594 844 -872 
Q 456 -353 194 -78 
Q 750 144 1111 414 
Q 1472 684 1630 989 
Q 1788 1294 1841 1978 
L 950 1978 
L 950 2475 
Q 794 2356 631 2247 
Q 344 2653 63 2953 
Q 1475 3947 2194 5316 
L 3031 4953 
Q 2378 3722 1391 2841 
L 5047 2841 
Q 4088 3766 3463 4903 
L 4238 5303 
Q 5038 3922 6350 3028 
z
" transform="scale(0.015625)"/>
     <path id="MicrosoftYaHei-Bold-5c42" d="M 650 5072 
L 5975 5072 
L 5975 3166 
L 1525 3166 
Q 1519 2228 1475 1591 
L 6288 1591 
L 6288 878 
L 4806 878 
Q 5672 122 6194 -391 
L 5575 -903 
L 5244 -559 
Q 2244 -694 1838 -803 
L 1488 -128 
Q 1988 175 2528 878 
L 1400 878 
Q 1288 41 763 -778 
Q 388 -328 94 -41 
Q 356 419 500 1014 
Q 644 1609 650 3091 
L 650 5072 
z
M 5100 3878 
L 5100 4359 
L 1525 4359 
L 1525 3878 
L 5100 3878 
z
M 4119 553 
L 4509 878 
L 3528 878 
Q 3144 406 2838 53 
L 4563 119 
L 4119 553 
z
M 1825 2753 
L 5838 2753 
L 5838 2041 
L 1825 2041 
L 1825 2753 
z
" transform="scale(0.015625)"/>
     <path id="MicrosoftYaHei-Bold-ff1a" d="M 1594 3506 
Q 1831 3506 2000 3354 
Q 2169 3203 2169 2981 
Q 2169 2766 2003 2614 
Q 1838 2463 1594 2463 
Q 1353 2463 1189 2616 
Q 1025 2769 1025 2981 
Q 1025 3200 1192 3353 
Q 1359 3506 1594 3506 
z
M 1594 959 
Q 1831 959 2000 806 
Q 2169 653 2169 434 
Q 2169 222 2000 69 
Q 1831 -84 1594 -84 
Q 1356 -84 1190 69 
Q 1025 222 1025 434 
Q 1025 653 1190 806 
Q 1356 959 1594 959 
z
" transform="scale(0.015625)"/>
     <path id="MicrosoftYaHei-Bold-7cbe" d="M 2463 3203 
L 3950 3203 
L 3950 3478 
L 2713 3478 
L 2713 4016 
L 3950 4016 
L 3950 4291 
L 2588 4291 
L 2588 4828 
L 3950 4828 
L 3950 5328 
L 4763 5328 
L 4763 4828 
L 6206 4828 
L 6206 4291 
L 4763 4291 
L 4763 4016 
L 6069 4016 
L 6069 3478 
L 4763 3478 
L 4763 3203 
L 6306 3203 
L 6306 2666 
L 2463 2666 
L 2463 3203 
z
M 131 3097 
L 906 3097 
L 906 5291 
L 1644 5291 
L 1644 3097 
L 2338 3097 
L 2338 2434 
L 1644 2434 
L 1644 1772 
L 1900 2016 
Q 2300 1634 2638 1272 
L 2138 784 
Q 1956 1013 1644 1356 
L 1644 -828 
L 906 -828 
L 906 1091 
Q 619 416 288 -72 
Q 181 322 25 859 
Q 472 1450 869 2434 
L 131 2434 
L 131 3097 
z
M 2038 4822 
L 2544 4666 
Q 2363 4047 2138 3409 
L 1675 3578 
L 2038 4822 
z
M 550 4822 
Q 738 4122 869 3572 
L 375 3416 
Q 244 4028 63 4672 
L 550 4822 
z
M 3506 -816 
L 2744 -816 
L 2744 2428 
L 6025 2428 
L 6025 72 
Q 6025 -356 5847 -572 
Q 5669 -788 5339 -792 
Q 5009 -797 4313 -797 
Q 4256 -509 4150 -153 
Q 4803 -191 4988 -191 
Q 5263 -191 5263 122 
L 5263 203 
L 3506 203 
L 3506 -816 
z
M 5263 1841 
L 3506 1841 
L 3506 1541 
L 5263 1541 
L 5263 1841 
z
M 3506 722 
L 5263 722 
L 5263 1022 
L 3506 1022 
L 3506 722 
z
" transform="scale(0.015625)"/>
     <path id="MicrosoftYaHei-Bold-4fee" d="M 3506 5303 
L 4400 5303 
Q 4256 5047 4103 4809 
L 6075 4809 
L 6075 4147 
Q 5738 3613 5203 3200 
Q 5703 3044 6306 2978 
Q 6150 2591 6044 2241 
Q 5428 2328 4909 2513 
L 5275 2128 
Q 4519 1659 3056 1203 
Q 2950 1391 2694 1753 
Q 4063 2119 4834 2541 
Q 4622 2619 4425 2716 
Q 3697 2350 2731 2134 
Q 2666 2325 2425 2741 
L 2425 116 
L 1750 116 
L 1750 4316 
L 2425 4316 
L 2425 3797 
Q 3213 4594 3506 5303 
z
M 5194 4109 
L 3681 4109 
Q 4006 3769 4441 3525 
Q 4897 3781 5194 4109 
z
M 2931 3334 
Q 2634 3591 2425 3734 
L 2425 2872 
Q 3125 2997 3681 3191 
Q 3428 3394 3219 3634 
Q 3078 3478 2931 3334 
z
M 1125 5303 
L 1913 5166 
Q 1688 4341 1425 3619 
L 1425 -847 
L 675 -847 
L 675 1891 
Q 497 1550 306 1241 
Q 200 1853 69 2466 
Q 688 3603 1125 5303 
z
M 5388 1903 
L 5806 1422 
Q 4900 722 3063 228 
Q 2919 478 2656 834 
Q 4456 1259 5388 1903 
z
M 5888 1097 
L 6331 597 
Q 4988 -522 2638 -884 
Q 2469 -497 2294 -203 
Q 4488 103 5888 1097 
z
" transform="scale(0.015625)"/>
     <path id="MicrosoftYaHei-Bold-524d" d="M 4256 5359 
L 5275 5103 
Q 5094 4878 4897 4653 
L 6294 4653 
L 6294 3916 
L 100 3916 
L 100 4653 
L 1428 4653 
Q 1288 4881 1138 5103 
L 2075 5359 
Q 2316 4997 2528 4653 
L 3797 4653 
Q 4038 5003 4256 5359 
z
M 5106 3647 
L 5950 3647 
L 5950 191 
Q 5950 -231 5765 -465 
Q 5581 -700 5250 -745 
Q 4919 -791 4063 -791 
Q 4006 -428 3881 91 
Q 4450 66 4744 66 
Q 5106 66 5106 459 
L 5106 3647 
z
M 1306 -784 
L 456 -784 
L 456 3572 
L 3425 3572 
L 3425 103 
Q 3425 -303 3237 -518 
Q 3050 -734 2706 -761 
Q 2363 -788 1881 -791 
Q 1781 -253 1706 41 
Q 2181 16 2269 16 
Q 2575 16 2575 359 
L 2575 559 
L 1306 559 
L 1306 -784 
z
M 2575 2809 
L 1306 2809 
L 1306 2359 
L 2575 2359 
L 2575 2809 
z
M 1306 1234 
L 2575 1234 
L 2575 1684 
L 1306 1684 
L 1306 1234 
z
M 3869 3466 
L 4650 3466 
L 4650 491 
L 3869 491 
L 3869 3466 
z
" transform="scale(0.015625)"/>
     <path id="MicrosoftYaHei-Bold-540e" d="M 1638 2266 
Q 1638 378 894 -897 
Q 538 -572 75 -209 
Q 750 791 750 2409 
L 750 4816 
Q 3744 4903 5525 5141 
L 6069 4322 
Q 4269 4122 1638 4009 
L 1638 3441 
L 6194 3441 
L 6194 2609 
L 1638 2609 
L 1638 2266 
z
M 1975 -834 
L 1975 2041 
L 5813 2041 
L 5813 -834 
L 4938 -834 
L 4938 -572 
L 2850 -572 
L 2850 -834 
L 1975 -834 
z
M 4938 1228 
L 2850 1228 
L 2850 241 
L 4938 241 
L 4938 1228 
z
" transform="scale(0.015625)"/>
     <path id="MicrosoftYaHei-Bold-20" transform="scale(0.015625)"/>
     <path id="MicrosoftYaHei-Bold-52" d="M 4553 0 
L 3366 0 
L 2606 1259 
Q 2372 1650 2222 1762 
Q 2072 1875 1903 1875 
L 1591 1875 
L 1591 0 
L 559 0 
L 559 4841 
L 2256 4841 
Q 3984 4841 3984 3528 
Q 3984 3034 3695 2681 
Q 3406 2328 2900 2184 
L 2900 2172 
Q 3234 2059 3641 1434 
L 4553 0 
z
M 1591 4056 
L 1591 2663 
L 2097 2663 
Q 2459 2663 2679 2873 
Q 2900 3084 2900 3400 
Q 2900 4056 2116 4056 
L 1591 4056 
z
" transform="scale(0.015625)"/>
     <path id="MicrosoftYaHei-Bold-4d" d="M 4991 0 
L 4991 2938 
Q 4991 3344 5031 3959 
L 5006 3959 
Q 4913 3494 4856 3338 
L 3663 0 
L 2841 0 
L 1631 3306 
Q 1588 3425 1478 3959 
L 1450 3959 
Q 1491 3350 1491 2738 
L 1491 0 
L 559 0 
L 559 4841 
L 2059 4841 
L 3103 1916 
Q 3234 1553 3281 1234 
L 3303 1234 
Q 3400 1631 3503 1922 
L 4550 4841 
L 6009 4841 
L 6009 0 
L 4991 0 
z
" transform="scale(0.015625)"/>
     <path id="MicrosoftYaHei-Bold-53" d="M 338 1219 
Q 922 734 1666 734 
Q 2088 734 2300 879 
Q 2513 1025 2513 1253 
Q 2513 1450 2344 1625 
Q 2175 1800 1453 2100 
Q 319 2581 319 3500 
Q 319 4175 833 4548 
Q 1347 4922 2194 4922 
Q 2903 4922 3384 4738 
L 3384 3769 
Q 2897 4100 2244 4100 
Q 1863 4100 1634 3961 
Q 1406 3822 1406 3588 
Q 1406 3400 1562 3242 
Q 1719 3084 2334 2816 
Q 3056 2506 3326 2162 
Q 3597 1819 3597 1344 
Q 3597 647 3103 281 
Q 2609 -84 1700 -84 
Q 869 -84 338 184 
L 338 1219 
z
" transform="scale(0.015625)"/>
     <path id="MicrosoftYaHei-Bold-44" d="M 559 0 
L 559 4841 
L 2231 4841 
Q 4809 4841 4809 2481 
Q 4809 1359 4087 679 
Q 3366 0 2225 0 
L 559 0 
z
M 1591 3997 
L 1591 844 
L 2153 844 
Q 2888 844 3306 1281 
Q 3725 1719 3725 2466 
Q 3725 3188 3287 3592 
Q 2850 3997 2150 3997 
L 1591 3997 
z
" transform="scale(0.015625)"/>
     <path id="MicrosoftYaHei-Bold-ff5c" d="M 2881 -1625 
L 2881 5288 
L 3513 5288 
L 3513 -1625 
L 2881 -1625 
z
" transform="scale(0.015625)"/>
     <path id="MicrosoftYaHei-Bold-65" d="M 3528 1444 
L 1253 1444 
Q 1306 641 2222 641 
Q 2794 641 3231 922 
L 3231 181 
Q 2759 -84 1994 -84 
Q 1169 -84 711 381 
Q 253 847 253 1678 
Q 253 2506 740 3023 
Q 1228 3541 1966 3541 
Q 2700 3541 3114 3095 
Q 3528 2650 3528 1872 
L 3528 1444 
z
M 2588 2075 
Q 2588 2850 1959 2850 
Q 1700 2850 1500 2637 
Q 1300 2425 1250 2075 
L 2588 2075 
z
" transform="scale(0.015625)"/>
     <path id="MicrosoftYaHei-Bold-70" d="M 1469 416 
L 1469 -1591 
L 459 -1591 
L 459 3456 
L 1469 3456 
L 1469 2928 
L 1481 2928 
Q 1878 3541 2603 3541 
Q 3263 3541 3634 3080 
Q 4006 2619 4006 1825 
Q 4006 959 3575 437 
Q 3144 -84 2444 -84 
Q 1809 -84 1481 416 
L 1469 416 
z
M 1453 1528 
Q 1453 1159 1653 925 
Q 1853 691 2172 691 
Q 2550 691 2761 984 
Q 2972 1278 2972 1816 
Q 2972 2766 2231 2766 
Q 1888 2766 1670 2503 
Q 1453 2241 1453 1828 
L 1453 1528 
z
" transform="scale(0.015625)"/>
     <path id="MicrosoftYaHei-Bold-6f" d="M 253 1713 
Q 253 2566 764 3053 
Q 1275 3541 2138 3541 
Q 2972 3541 3462 3061 
Q 3953 2581 3953 1772 
Q 3953 922 3450 419 
Q 2947 -84 2088 -84 
Q 1244 -84 748 398 
Q 253 881 253 1713 
z
M 1275 1725 
Q 1275 691 2119 691 
Q 2928 691 2928 1753 
Q 2928 2766 2113 2766 
Q 1716 2766 1495 2494 
Q 1275 2222 1275 1725 
z
" transform="scale(0.015625)"/>
     <path id="MicrosoftYaHei-Bold-63" d="M 3050 128 
Q 2688 -84 2019 -84 
Q 1228 -84 740 397 
Q 253 878 253 1644 
Q 253 2525 778 3033 
Q 1303 3541 2178 3541 
Q 2769 3541 3053 3378 
L 3053 2513 
Q 2706 2766 2297 2766 
Q 1834 2766 1554 2484 
Q 1275 2203 1275 1713 
Q 1275 1238 1540 964 
Q 1806 691 2263 691 
Q 2666 691 3050 947 
L 3050 128 
z
" transform="scale(0.015625)"/>
     <path id="MicrosoftYaHei-Bold-68" d="M 3725 0 
L 2719 0 
L 2719 1969 
Q 2719 2766 2138 2766 
Q 1847 2766 1658 2544 
Q 1469 2322 1469 1969 
L 1469 0 
L 459 0 
L 459 5116 
L 1469 5116 
L 1469 2938 
L 1481 2938 
Q 1878 3541 2550 3541 
Q 3725 3541 3725 2122 
L 3725 0 
z
" transform="scale(0.015625)"/>
     <path id="MicrosoftYaHei-Bold-34" d="M 3184 4841 
L 3184 1766 
L 3869 1766 
L 3869 1031 
L 3184 1031 
L 3184 0 
L 2266 0 
L 2266 1031 
L 103 1031 
L 103 1772 
Q 775 2522 1362 3359 
Q 1950 4197 2250 4841 
L 3184 4841 
z
M 997 1766 
L 2266 1766 
L 2266 3541 
Q 2116 3259 1836 2859 
Q 1556 2459 997 1766 
z
" transform="scale(0.015625)"/>
     <path id="MicrosoftYaHei-Bold-39" d="M 544 941 
Q 931 691 1456 691 
Q 2628 691 2653 2216 
L 2634 2222 
Q 2316 1731 1650 1731 
Q 1047 1731 658 2154 
Q 269 2578 269 3222 
Q 269 3978 737 4450 
Q 1206 4922 1959 4922 
Q 2744 4922 3191 4325 
Q 3638 3728 3638 2659 
Q 3638 1391 3098 653 
Q 2559 -84 1547 -84 
Q 975 -84 544 100 
L 544 941 
z
M 1259 3313 
Q 1259 2928 1445 2709 
Q 1631 2491 1953 2491 
Q 2241 2491 2427 2700 
Q 2613 2909 2613 3219 
Q 2613 3591 2427 3869 
Q 2241 4147 1928 4147 
Q 1625 4147 1442 3906 
Q 1259 3666 1259 3313 
z
" transform="scale(0.015625)"/>
    </defs>
    <use xlink:href="#MicrosoftYaHei-Bold-6309"/>
    <use xlink:href="#MicrosoftYaHei-Bold-94fe" x="100"/>
    <use xlink:href="#MicrosoftYaHei-Bold-957f" x="200"/>
    <use xlink:href="#MicrosoftYaHei-Bold-5206" x="300"/>
    <use xlink:href="#MicrosoftYaHei-Bold-5c42" x="400"/>
    <use xlink:href="#MicrosoftYaHei-Bold-ff1a" x="500"/>
    <use xlink:href="#MicrosoftYaHei-Bold-7cbe" x="600"/>
    <use xlink:href="#MicrosoftYaHei-Bold-4fee" x="700"/>
    <use xlink:href="#MicrosoftYaHei-Bold-524d" x="800"/>
    <use xlink:href="#MicrosoftYaHei-Bold-540e" x="900"/>
    <use xlink:href="#MicrosoftYaHei-Bold-20" x="1000"/>
    <use xlink:href="#MicrosoftYaHei-Bold-52" x="1029.785156"/>
    <use xlink:href="#MicrosoftYaHei-Bold-4d" x="1099.609375"/>
    <use xlink:href="#MicrosoftYaHei-Bold-53" x="1202.441406"/>
    <use xlink:href="#MicrosoftYaHei-Bold-44" x="1262.597656"/>
    <use xlink:href="#MicrosoftYaHei-Bold-ff5c" x="1341.748047"/>
    <use xlink:href="#MicrosoftYaHei-Bold-65" x="1441.748047"/>
    <use xlink:href="#MicrosoftYaHei-Bold-70" x="1499.951172"/>
    <use xlink:href="#MicrosoftYaHei-Bold-6f" x="1566.552734"/>
    <use xlink:href="#MicrosoftYaHei-Bold-63" x="1632.275391"/>
    <use xlink:href="#MicrosoftYaHei-Bold-68" x="1683.935547"/>
    <use xlink:href="#MicrosoftYaHei-Bold-20" x="1748.486328"/>
    <use xlink:href="#MicrosoftYaHei-Bold-34" x="1778.271484"/>
    <use xlink:href="#MicrosoftYaHei-Bold-39" x="1839.941406"/>
   </g>
  </g>
  <g id="text_36">
   <!-- 每条 PDB 链先对其候选取平均，再对同一长度组的链等权平均；数值越低越好。 -->
   <g style="fill: #475569" transform="translate(291.512969 386.28) scale(0.1 -0.1)">
    <defs>
     <path id="MicrosoftYaHei-6bcf" d="M 125 2203 
L 1044 2203 
L 1325 3766 
L 5456 3766 
Q 5422 2928 5391 2203 
L 6300 2203 
L 6300 1753 
L 5372 1753 
Q 5344 1141 5319 616 
L 6075 616 
L 6075 178 
L 5284 178 
Q 5222 -278 5031 -484 
Q 4788 -753 4181 -753 
Q 3831 -753 3288 -728 
Q 3256 -516 3194 -222 
Q 3838 -278 4119 -278 
Q 4513 -278 4638 -128 
Q 4722 -41 4766 178 
L 763 178 
L 763 647 
L 963 1753 
L 125 1753 
L 125 2203 
z
M 4866 1753 
L 1472 1753 
L 1275 616 
L 4813 616 
Q 4844 1172 4866 1753 
z
M 4925 3328 
L 1750 3328 
L 1553 2203 
L 4888 2203 
Q 4906 2753 4925 3328 
z
M 100 3522 
Q 1025 4309 1550 5359 
L 2113 5359 
Q 1966 5069 1803 4803 
L 6156 4803 
L 6156 4353 
L 1509 4353 
Q 1022 3659 413 3134 
Q 281 3316 100 3522 
z
M 2619 2978 
L 2913 3303 
Q 3388 2934 3750 2622 
L 3413 2247 
Q 3025 2628 2619 2978 
z
M 2569 1391 
L 2863 1716 
Q 3338 1347 3700 1034 
L 3369 666 
Q 2888 1116 2569 1391 
z
" transform="scale(0.015625)"/>
     <path id="MicrosoftYaHei-6761" d="M 375 3347 
Q 1388 4178 2113 5328 
L 2681 5328 
Q 2488 5016 2284 4728 
L 5344 4728 
L 5344 4284 
Q 4606 3572 3797 3088 
Q 4747 2734 6313 2584 
Q 6100 2291 6038 2041 
Q 4253 2347 3272 2806 
Q 2156 2284 306 1897 
Q 213 2122 81 2347 
Q 1813 2666 2772 3069 
Q 2203 3416 1700 3978 
Q 1250 3453 750 3016 
Q 525 3241 375 3347 
z
M 694 1759 
L 3013 1759 
L 3013 2378 
L 3506 2378 
L 3506 1759 
L 5675 1759 
L 5675 1316 
L 3506 1316 
L 3506 3 
Q 3506 -728 2738 -728 
Q 2400 -728 1950 -722 
Q 1913 -466 1856 -172 
Q 2294 -222 2588 -222 
Q 3013 -222 3013 234 
L 3013 1316 
L 694 1316 
L 694 1759 
z
M 4706 4309 
L 1981 4309 
Q 2531 3719 3291 3319 
Q 4031 3722 4706 4309 
z
M 4094 666 
L 4381 1022 
Q 5413 459 6200 -53 
L 5900 -491 
Q 5150 47 4094 666 
z
M 1875 1084 
L 2244 741 
Q 1481 84 569 -541 
Q 425 -353 250 -159 
Q 1113 372 1875 1084 
z
" transform="scale(0.015625)"/>
     <path id="MicrosoftYaHei-50" d="M 1250 1809 
L 1250 0 
L 625 0 
L 625 4841 
L 2000 4841 
Q 2784 4841 3217 4462 
Q 3650 4084 3650 3381 
Q 3650 2669 3144 2226 
Q 2638 1784 1878 1809 
L 1250 1809 
z
M 1250 4291 
L 1250 2359 
L 1828 2359 
Q 2400 2359 2697 2617 
Q 2994 2875 2994 3356 
Q 2994 4291 1888 4291 
L 1250 4291 
z
" transform="scale(0.015625)"/>
     <path id="MicrosoftYaHei-42" d="M 625 0 
L 625 4841 
L 2047 4841 
Q 2684 4841 3065 4536 
Q 3447 4231 3447 3728 
Q 3447 3328 3220 3022 
Q 2994 2716 2597 2588 
L 2597 2575 
Q 3091 2519 3386 2201 
Q 3681 1884 3681 1397 
Q 3681 772 3232 386 
Q 2784 0 2084 0 
L 625 0 
z
M 1250 4294 
L 1250 2778 
L 1819 2778 
Q 2272 2778 2530 2998 
Q 2788 3219 2788 3609 
Q 2788 4294 1875 4294 
L 1250 4294 
z
M 1250 2234 
L 1250 547 
L 2000 547 
Q 2491 547 2758 773 
Q 3025 1000 3025 1403 
Q 3025 2234 1897 2234 
L 1250 2234 
z
" transform="scale(0.015625)"/>
     <path id="MicrosoftYaHei-5148" d="M 225 2453 
L 2956 2453 
L 2956 3784 
L 1459 3784 
Q 1153 3166 800 2709 
Q 569 2891 394 2997 
Q 1094 3903 1481 5166 
L 1969 5028 
Q 1828 4613 1672 4247 
L 2956 4247 
L 2956 5309 
L 3469 5309 
L 3469 4247 
L 5788 4247 
L 5788 3784 
L 3469 3784 
L 3469 2453 
L 6219 2453 
L 6219 1991 
L 4206 1991 
L 4206 222 
Q 4169 -259 4638 -216 
L 5275 -216 
Q 5706 -216 5750 109 
Q 5794 428 5819 1022 
Q 6056 922 6344 834 
Q 6313 372 6231 -122 
Q 6169 -434 5956 -559 
Q 5769 -678 5281 -678 
L 4538 -678 
Q 3663 -716 3700 141 
L 3700 1991 
L 2478 1991 
Q 2428 909 2044 328 
Q 1581 -397 369 -847 
Q 244 -647 50 -397 
Q 1163 -16 1581 584 
Q 1925 1047 1978 1991 
L 225 1991 
L 225 2453 
z
" transform="scale(0.015625)"/>
     <path id="MicrosoftYaHei-5bf9" d="M 694 3691 
Q 1234 2909 1741 2166 
Q 2113 3081 2213 4147 
L 250 4147 
L 250 4622 
L 2725 4622 
L 2725 4166 
Q 2553 2809 2059 1700 
Q 2569 953 3044 247 
L 2594 -53 
Q 2203 563 1803 1181 
Q 1247 163 388 -622 
Q 263 -428 81 -166 
Q 975 638 1500 1647 
Q 919 2538 319 3434 
L 694 3691 
z
M 2975 3941 
L 5056 3941 
L 5056 5278 
L 5563 5278 
L 5563 3941 
L 6325 3941 
L 6325 3466 
L 5563 3466 
L 5563 191 
Q 5563 -716 4669 -716 
Q 4388 -716 3744 -709 
Q 3713 -478 3644 -147 
Q 4263 -197 4588 -197 
Q 5056 -197 5056 278 
L 5056 3466 
L 2975 3466 
L 2975 3941 
z
M 3088 2684 
L 3494 2928 
Q 4000 2184 4388 1484 
L 3919 1216 
Q 3550 1922 3088 2684 
z
" transform="scale(0.015625)"/>
     <path id="MicrosoftYaHei-5176" d="M 5206 5284 
L 5206 4509 
L 6150 4509 
L 6150 4059 
L 5206 4059 
L 5206 1153 
L 6288 1153 
L 6288 703 
L 125 703 
L 125 1153 
L 1194 1153 
L 1194 4059 
L 250 4059 
L 250 4509 
L 1194 4509 
L 1194 5284 
L 1675 5284 
L 1675 4509 
L 4725 4509 
L 4725 5284 
L 5206 5284 
z
M 1675 1153 
L 4725 1153 
L 4725 1834 
L 1675 1834 
L 1675 1153 
z
M 1675 2272 
L 4725 2272 
L 4725 2947 
L 1675 2947 
L 1675 2272 
z
M 1675 3384 
L 4725 3384 
L 4725 4059 
L 1675 4059 
L 1675 3384 
z
M 3794 184 
L 4069 609 
Q 5581 3 6306 -353 
L 6044 -841 
Q 4975 -284 3794 184 
z
M 2269 603 
L 2569 184 
Q 1381 -472 350 -872 
Q 269 -672 94 -403 
Q 1400 72 2269 603 
z
" transform="scale(0.015625)"/>
     <path id="MicrosoftYaHei-5019" d="M 2456 1453 
L 4088 1453 
Q 4122 1781 4125 2284 
L 3322 2284 
Q 3131 1878 2919 1553 
Q 2725 1678 2500 1809 
Q 2981 2472 3219 3316 
L 3688 3216 
Q 3600 2956 3509 2722 
L 5988 2722 
L 5988 2284 
L 4606 2284 
Q 4600 1797 4572 1453 
L 6300 1453 
L 6300 1016 
L 4628 1016 
Q 5200 -122 6388 -316 
Q 6213 -578 6044 -822 
Q 4925 -500 4356 647 
Q 3972 -313 2344 -884 
Q 2206 -666 2025 -422 
Q 3678 16 4006 1016 
L 2456 1016 
L 2456 1453 
z
M 38 2334 
Q 875 3759 1169 5316 
L 1638 5228 
Q 1475 4528 1256 3903 
L 1256 -847 
L 806 -847 
L 806 2806 
Q 553 2281 250 1816 
Q 156 2059 38 2334 
z
M 2469 3803 
L 4978 3803 
L 5075 4609 
L 2831 4609 
L 2831 5034 
L 5606 5034 
L 5459 3803 
L 6250 3803 
L 6250 3366 
L 2469 3366 
L 2469 3803 
z
M 1763 4422 
L 2225 4422 
L 2225 509 
L 1763 509 
L 1763 4422 
z
" transform="scale(0.015625)"/>
     <path id="MicrosoftYaHei-9009" d="M 1756 2753 
L 3825 2753 
L 3825 3797 
L 2772 3797 
Q 2584 3322 2381 2947 
Q 2219 3053 1944 3172 
Q 2431 4028 2669 5072 
L 3156 4966 
Q 3047 4575 2928 4228 
L 3825 4228 
L 3825 5316 
L 4313 5316 
L 4313 4228 
L 5944 4228 
L 5944 3797 
L 4313 3797 
L 4313 2753 
L 6244 2753 
L 6244 2322 
L 4769 2322 
L 4769 984 
Q 4769 653 5044 653 
L 5344 653 
Q 5631 653 5675 953 
Q 5713 1197 5744 1691 
Q 5938 1603 6219 1509 
Q 6169 1078 6113 784 
Q 6013 228 5400 228 
L 4938 228 
Q 4288 228 4288 934 
L 4288 2322 
L 3447 2322 
Q 3444 2038 3431 1816 
Q 3394 647 2119 84 
Q 1994 266 1806 503 
Q 2906 959 2950 1816 
Q 2963 2003 2972 2322 
L 1756 2322 
L 1756 2753 
z
M 2694 -197 
L 4000 -209 
L 6300 -166 
Q 6231 -372 6125 -659 
L 3947 -684 
L 2638 -666 
Q 1513 -628 1081 91 
Q 825 -147 331 -747 
L 75 -228 
Q 628 306 875 538 
L 875 2641 
L 131 2641 
L 131 3103 
L 1356 3103 
L 1356 431 
Q 1741 -184 2694 -197 
z
M 856 5203 
Q 1175 4816 1731 4022 
L 1288 3709 
Q 781 4503 456 4934 
L 856 5203 
z
" transform="scale(0.015625)"/>
     <path id="MicrosoftYaHei-53d6" d="M 88 641 
Q 363 675 650 713 
L 650 4578 
L 181 4578 
L 181 5016 
L 3244 5016 
L 3244 4797 
L 5975 4797 
L 5975 4403 
Q 5613 2097 4906 1006 
Q 5497 172 6325 -291 
Q 6150 -472 5944 -753 
Q 5275 -266 4625 609 
Q 3994 -219 3125 -828 
Q 2947 -594 2806 -434 
L 2806 -822 
L 2338 -822 
L 2338 531 
Q 1197 353 156 178 
L 88 641 
z
M 3194 4372 
L 3194 4578 
L 2806 4578 
L 2806 1025 
Q 3156 1081 3519 1141 
Q 3500 884 3500 709 
Q 3147 656 2806 603 
L 2806 -403 
Q 3681 109 4350 1006 
Q 3628 2156 3422 4372 
L 3194 4372 
z
M 5506 4372 
L 3875 4372 
Q 4022 2544 4638 1428 
Q 5181 2344 5506 4372 
z
M 2338 953 
L 2338 1866 
L 1119 1866 
L 1119 775 
Q 1703 859 2338 953 
z
M 1119 2266 
L 2338 2266 
L 2338 3222 
L 1119 3222 
L 1119 2266 
z
M 1119 3622 
L 2338 3622 
L 2338 4578 
L 1119 4578 
L 1119 3622 
z
" transform="scale(0.015625)"/>
     <path id="MicrosoftYaHei-ff0c" d="M 1931 775 
L 1403 -891 
L 966 -891 
L 1350 775 
L 1931 775 
z
" transform="scale(0.015625)"/>
     <path id="MicrosoftYaHei-518d" d="M 1425 -803 
L 931 -803 
L 931 947 
L 138 947 
L 138 1378 
L 931 1378 
L 931 3822 
L 2956 3822 
L 2956 4522 
L 338 4522 
L 338 4953 
L 6069 4953 
L 6069 4522 
L 3444 4522 
L 3444 3822 
L 5481 3822 
L 5481 1378 
L 6300 1378 
L 6300 947 
L 5481 947 
L 5481 -41 
Q 5481 -728 4831 -734 
Q 4431 -741 3806 -734 
Q 3769 -522 3713 -259 
Q 4225 -297 4600 -297 
Q 4981 -309 4981 28 
L 4981 947 
L 1425 947 
L 1425 -803 
z
M 3444 1378 
L 4981 1378 
L 4981 2197 
L 3444 2197 
L 3444 1378 
z
M 1425 1378 
L 2956 1378 
L 2956 2197 
L 1425 2197 
L 1425 1378 
z
M 4981 3416 
L 3444 3416 
L 3444 2603 
L 4981 2603 
L 4981 3416 
z
M 1425 2603 
L 2956 2603 
L 2956 3416 
L 1425 3416 
L 1425 2603 
z
" transform="scale(0.015625)"/>
     <path id="MicrosoftYaHei-540c" d="M 1013 -772 
L 531 -772 
L 531 4959 
L 5856 4959 
L 5856 -47 
Q 5856 -741 5125 -741 
Q 4669 -741 4088 -716 
Q 4056 -497 4000 -216 
Q 4619 -272 5025 -272 
Q 5375 -272 5375 78 
L 5375 4497 
L 1013 4497 
L 1013 -772 
z
M 1875 2566 
L 4506 2566 
L 4506 597 
L 2338 597 
L 2338 272 
L 1875 272 
L 1875 2566 
z
M 4044 2116 
L 2338 2116 
L 2338 1047 
L 4044 1047 
L 4044 2116 
z
M 1363 3734 
L 5025 3734 
L 5025 3284 
L 1363 3284 
L 1363 3734 
z
" transform="scale(0.015625)"/>
     <path id="MicrosoftYaHei-4e00" d="M 100 2703 
L 6313 2703 
L 6313 2153 
L 100 2153 
L 100 2703 
z
" transform="scale(0.015625)"/>
     <path id="MicrosoftYaHei-957f" d="M 169 2766 
L 1269 2766 
L 1269 5316 
L 1781 5316 
L 1781 2766 
L 6194 2766 
L 6194 2278 
L 3456 2278 
Q 4238 566 6325 -78 
Q 6113 -359 5944 -591 
Q 3697 266 2925 2278 
L 1781 2278 
L 1781 16 
Q 2494 303 3294 678 
Q 3294 384 3319 116 
Q 2575 -191 1894 -528 
Q 1644 -666 1431 -834 
L 1056 -353 
Q 1269 -184 1269 103 
L 1269 2278 
L 169 2278 
L 169 2766 
z
M 2156 3528 
Q 3706 4047 5138 5109 
L 5463 4703 
Q 4000 3634 2400 3066 
Q 2300 3278 2156 3528 
z
" transform="scale(0.015625)"/>
     <path id="MicrosoftYaHei-5ea6" d="M 1550 1216 
L 1550 1628 
L 5469 1628 
L 5469 1222 
Q 4903 613 4147 163 
Q 5050 -200 6263 -309 
L 6019 -797 
Q 4625 -603 3644 -109 
Q 2600 -619 1250 -866 
Q 1150 -666 994 -416 
Q 2231 -222 3166 166 
Q 2497 600 2066 1216 
L 1550 1216 
z
M 1363 3541 
L 2294 3541 
L 2294 4066 
L 2769 4066 
L 2769 3541 
L 4538 3541 
L 4538 4072 
L 5013 4072 
L 5013 3541 
L 6150 3541 
L 6150 3128 
L 5013 3128 
L 5013 1928 
L 4538 1928 
L 4538 2147 
L 2769 2147 
L 2769 1922 
L 2294 1922 
L 2294 3128 
L 1363 3128 
L 1363 3541 
z
M 3025 5172 
L 3481 5391 
Q 3694 5056 3909 4634 
L 6213 4634 
L 6213 4197 
L 1225 4197 
L 1225 2316 
Q 1225 178 394 -872 
Q 238 -666 38 -447 
Q 725 397 738 2347 
L 738 4634 
L 3331 4634 
Q 3188 4909 3025 5172 
z
M 2769 2547 
L 4538 2547 
L 4538 3128 
L 2769 3128 
L 2769 2547 
z
M 4819 1216 
L 2588 1216 
Q 3031 728 3656 391 
Q 4334 741 4819 1216 
z
" transform="scale(0.015625)"/>
     <path id="MicrosoftYaHei-7ec4" d="M 1994 -516 
L 1994 -66 
L 2738 -66 
L 2738 4941 
L 5763 4941 
L 5763 -66 
L 6313 -66 
L 6313 -516 
L 1994 -516 
z
M 969 1703 
Q 1606 1784 2300 1872 
Q 2275 1603 2256 1447 
Q 1331 1328 400 1191 
L 300 1647 
Q 697 1956 1284 2941 
Q 597 2897 256 2866 
L 131 3278 
Q 619 3866 1200 5291 
L 1706 5116 
Q 1163 4091 681 3316 
Q 1197 3319 1506 3328 
Q 1756 3775 2038 4334 
L 2519 4122 
Q 1806 2859 969 1703 
z
M 5288 4491 
L 3213 4491 
L 3213 3259 
L 5288 3259 
L 5288 4491 
z
M 3213 -66 
L 5288 -66 
L 5288 1166 
L 3213 1166 
L 3213 -66 
z
M 3213 1597 
L 5288 1597 
L 5288 2828 
L 3213 2828 
L 3213 1597 
z
M 181 291 
Q 1088 459 2356 741 
Q 2331 453 2331 266 
Q 1031 -3 319 -184 
L 181 291 
z
" transform="scale(0.015625)"/>
     <path id="MicrosoftYaHei-7684" d="M 356 4284 
L 988 4284 
Q 1219 4853 1369 5322 
L 1894 5172 
Q 1697 4694 1513 4284 
L 2763 4284 
L 2763 -691 
L 2263 -691 
L 2263 -203 
L 856 -203 
L 856 -734 
L 356 -734 
L 356 4284 
z
M 2856 3003 
Q 3444 3934 3850 5322 
L 4375 5191 
Q 4216 4719 4050 4303 
L 6063 4303 
Q 5988 1091 5938 259 
Q 5894 -722 4906 -722 
Q 4338 -722 3750 -684 
Q 3713 -372 3650 -128 
L 3669 -128 
Q 4294 -216 4813 -216 
Q 5381 -216 5425 384 
Q 5494 1316 5525 3834 
L 3850 3834 
Q 3578 3231 3288 2772 
Q 3119 2891 2856 3003 
z
M 856 266 
L 2263 266 
L 2263 1847 
L 856 1847 
L 856 266 
z
M 2263 3816 
L 856 3816 
L 856 2297 
L 2263 2297 
L 2263 3816 
z
M 3406 2578 
L 3788 2859 
Q 4481 2041 4894 1441 
L 4431 1116 
Q 3988 1841 3406 2578 
z
" transform="scale(0.015625)"/>
     <path id="MicrosoftYaHei-7b49" d="M 125 2303 
L 2913 2303 
L 2913 2922 
L 563 2922 
L 563 3328 
L 2913 3328 
L 2913 3822 
L 3400 3822 
L 3400 3328 
L 5850 3328 
L 5850 2922 
L 3400 2922 
L 3400 2303 
L 6288 2303 
L 6288 1884 
L 125 1884 
L 125 2303 
z
M 338 1272 
L 4250 1272 
L 4250 1766 
L 4738 1766 
L 4738 1272 
L 6075 1272 
L 6075 853 
L 4738 853 
L 4738 22 
Q 4738 -766 3925 -766 
Q 3450 -766 2969 -759 
Q 2938 -534 2875 -228 
Q 3375 -278 3794 -278 
Q 4250 -278 4250 91 
L 4250 853 
L 338 853 
L 338 1272 
z
M 1294 5347 
L 1831 5347 
Q 1688 5041 1513 4759 
L 3325 4759 
L 3325 4372 
L 1244 4372 
Q 875 3878 388 3459 
Q 263 3609 75 3797 
Q 856 4428 1294 5347 
z
M 3969 5347 
L 4506 5347 
Q 4366 5038 4213 4759 
L 6225 4759 
L 6225 4372 
L 3984 4372 
Q 3772 4038 3538 3759 
Q 3275 3947 3119 4009 
Q 3663 4597 3969 5347 
z
M 1500 491 
L 1831 809 
Q 2256 447 2700 28 
L 2338 -316 
Q 2000 41 1500 491 
z
M 2019 3441 
Q 1781 3753 1500 4078 
L 1825 4309 
Q 2125 4022 2388 3722 
L 2019 3441 
z
M 4744 3441 
Q 4625 3628 4238 4078 
L 4563 4309 
Q 4900 3984 5113 3722 
L 4744 3441 
z
" transform="scale(0.015625)"/>
     <path id="MicrosoftYaHei-6743" d="M 2331 4416 
L 2331 4884 
L 5881 4884 
L 5881 4428 
Q 5588 2253 4556 922 
Q 5231 241 6344 -203 
Q 6075 -497 5925 -722 
Q 4850 -166 4213 516 
Q 3500 -228 2225 -872 
Q 2088 -647 1875 -397 
Q 3194 222 3888 916 
Q 2944 2103 2719 4416 
L 2331 4416 
z
M 63 1347 
Q 700 2322 1019 3528 
L 125 3528 
L 125 3966 
L 1100 3966 
L 1100 5291 
L 1575 5291 
L 1575 3966 
L 2456 3966 
L 2456 3528 
L 1575 3528 
L 1575 2703 
L 1844 2953 
Q 2406 2422 2750 2009 
L 2375 1659 
Q 1956 2191 1575 2591 
L 1575 -853 
L 1100 -853 
L 1100 2572 
Q 763 1522 275 797 
Q 188 1066 63 1347 
z
M 5350 4416 
L 3219 4416 
Q 3406 2397 4225 1309 
Q 5088 2466 5350 4416 
z
" transform="scale(0.015625)"/>
     <path id="MicrosoftYaHei-ff1b" d="M 1606 3531 
Q 1772 3531 1890 3415 
Q 2009 3300 2009 3138 
Q 2009 2975 1893 2858 
Q 1778 2741 1606 2741 
Q 1434 2741 1318 2858 
Q 1203 2975 1203 3138 
Q 1203 3300 1322 3415 
Q 1441 3531 1606 3531 
z
M 1931 775 
L 1403 -891 
L 966 -891 
L 1350 775 
L 1931 775 
z
" transform="scale(0.015625)"/>
     <path id="MicrosoftYaHei-6570" d="M 4175 5303 
L 4675 5228 
Q 4544 4622 4369 4097 
L 6281 4097 
L 6281 3672 
L 5888 3672 
Q 5731 1834 5088 753 
Q 5594 66 6375 -372 
Q 6175 -647 6038 -866 
Q 5275 -372 4769 309 
Q 4194 -403 3400 -928 
Q 3263 -747 3044 -534 
Q 3919 41 4463 772 
Q 3956 1647 3794 2791 
Q 3663 2559 3519 2359 
Q 3394 2541 3206 2759 
Q 3931 3803 4175 5303 
z
M 150 1697 
L 1100 1697 
Q 1238 1934 1369 2184 
L 1819 2041 
Q 1719 1866 1619 1697 
L 3150 1697 
L 3150 1291 
Q 2913 678 2431 216 
Q 2775 53 3131 -109 
L 2856 -541 
Q 2469 -322 2050 -103 
Q 1344 -609 269 -903 
Q 169 -703 56 -466 
Q 969 -259 1600 128 
Q 1063 403 475 691 
Q 675 978 863 1284 
L 150 1284 
L 150 1697 
z
M 219 3847 
L 1656 3847 
L 1656 5247 
L 2119 5247 
L 2119 3847 
L 3319 3847 
L 3319 3434 
L 2119 3434 
L 2119 3053 
L 2306 3266 
Q 2888 2841 3281 2516 
L 2981 2166 
Q 2638 2491 2119 2897 
L 2119 2184 
L 1656 2184 
L 1656 3059 
Q 1088 2466 331 2016 
Q 213 2197 63 2397 
Q 850 2822 1506 3434 
L 219 3434 
L 219 3847 
z
M 5388 3672 
L 4219 3672 
Q 4188 3591 4150 3516 
Q 4263 2191 4775 1247 
Q 5275 2159 5388 3672 
z
M 1088 834 
Q 1531 634 2000 416 
Q 2431 784 2675 1284 
L 1375 1284 
Q 1231 1053 1088 834 
z
M 3038 5091 
L 3425 4834 
Q 3081 4384 2738 4003 
Q 2594 4128 2400 4266 
Q 2725 4647 3038 5091 
z
M 381 4816 
L 738 5059 
Q 1019 4716 1319 4322 
L 931 4047 
Q 656 4453 381 4816 
z
" transform="scale(0.015625)"/>
     <path id="MicrosoftYaHei-503c" d="M 1619 -216 
L 2250 -216 
L 2250 3653 
L 3725 3653 
L 3725 4222 
L 1913 4222 
L 1913 4647 
L 3725 4647 
L 3725 5309 
L 4200 5309 
L 4200 4647 
L 6169 4647 
L 6169 4222 
L 4200 4222 
L 4200 3653 
L 5713 3653 
L 5713 -216 
L 6306 -216 
L 6306 -641 
L 1619 -641 
L 1619 -216 
z
M 69 2247 
Q 906 3497 1369 5278 
L 1831 5141 
Q 1581 4334 1288 3628 
L 1288 -816 
L 831 -816 
L 831 2666 
Q 563 2166 263 1734 
Q 175 1997 69 2247 
z
M 2713 -216 
L 5250 -216 
L 5250 353 
L 2713 353 
L 2713 -216 
z
M 5250 3241 
L 2713 3241 
L 2713 2678 
L 5250 2678 
L 5250 3241 
z
M 2713 1716 
L 5250 1716 
L 5250 2278 
L 2713 2278 
L 2713 1716 
z
M 2713 753 
L 5250 753 
L 5250 1316 
L 2713 1316 
L 2713 753 
z
" transform="scale(0.015625)"/>
     <path id="MicrosoftYaHei-8d8a" d="M 119 -334 
Q 600 534 619 2241 
L 1050 2216 
Q 1044 1597 981 1072 
Q 1206 606 1563 316 
L 1563 2616 
L 138 2616 
L 138 3047 
L 1375 3047 
L 1375 3966 
L 356 3966 
L 356 4397 
L 1375 4397 
L 1375 5303 
L 1813 5303 
L 1813 4397 
L 2775 4397 
L 2775 3966 
L 1813 3966 
L 1813 3047 
L 2875 3047 
L 2875 2616 
L 2000 2616 
L 2000 1628 
L 2800 1628 
L 2800 1197 
L 2000 1197 
L 2000 47 
Q 2459 -159 3069 -166 
Q 4519 -184 6313 -141 
Q 6200 -422 6138 -634 
Q 4363 -634 2938 -616 
Q 1456 -594 881 463 
Q 716 -338 381 -853 
Q 256 -559 119 -334 
z
M 3550 409 
Q 4125 956 4553 1563 
Q 4303 2409 4228 3716 
L 3494 3716 
L 3494 1591 
Q 3775 1834 4131 2159 
Q 4169 1916 4225 1697 
Q 3856 1384 3481 1028 
Q 3344 897 3188 697 
L 2875 1016 
Q 3069 1266 3069 1622 
L 3069 4128 
L 4206 4128 
Q 4188 4709 4188 5322 
L 4613 5322 
Q 4606 4753 4631 4128 
L 6175 4128 
L 6175 3716 
L 4653 3716 
Q 4700 2753 4872 2050 
Q 5219 2641 5438 3284 
L 5856 3109 
Q 5516 2241 5038 1506 
Q 5159 1181 5319 934 
Q 5431 747 5538 747 
Q 5631 747 5669 978 
Q 5725 1378 5775 1941 
Q 6063 1834 6206 1784 
Q 6138 1103 6075 766 
Q 5981 228 5600 228 
Q 5263 228 5013 578 
Q 4856 788 4731 1069 
Q 4347 553 3888 116 
Q 3769 259 3550 409 
z
M 4950 5066 
L 5275 5303 
Q 5544 5009 5894 4572 
L 5525 4316 
Q 5206 4766 4950 5066 
z
" transform="scale(0.015625)"/>
     <path id="MicrosoftYaHei-4f4e" d="M 2275 4809 
Q 4069 4809 5994 5072 
L 6169 4603 
Q 5306 4522 4497 4469 
Q 4513 3594 4556 2872 
L 6250 2872 
L 6250 2422 
L 4591 2422 
Q 4775 250 5581 -172 
Q 5756 -247 5806 -41 
Q 5863 278 5913 897 
Q 6156 784 6363 728 
Q 6300 141 6225 -241 
Q 6119 -728 5738 -728 
Q 5275 -728 4856 -178 
Q 4259 644 4122 2422 
L 2750 2422 
L 2750 209 
Q 3425 597 3913 878 
Q 3950 591 4006 397 
Q 3206 -59 2744 -353 
Q 2563 -472 2388 -634 
L 2063 -222 
Q 2275 -41 2275 316 
L 2275 4809 
z
M 38 2397 
Q 1000 3697 1531 5334 
L 1988 5172 
Q 1678 4309 1306 3578 
L 1306 -828 
L 856 -828 
L 856 2778 
Q 550 2288 213 1872 
Q 138 2122 38 2397 
z
M 4016 4441 
Q 3366 4403 2750 4384 
L 2750 2872 
L 4094 2872 
Q 4059 3481 4016 4441 
z
M 3531 -116 
L 3856 141 
Q 4206 -191 4544 -566 
L 4181 -859 
Q 3888 -491 3531 -116 
z
" transform="scale(0.015625)"/>
     <path id="MicrosoftYaHei-597d" d="M 2725 322 
L 2356 -72 
Q 1997 259 1653 569 
Q 1184 -141 413 -741 
Q 281 -547 125 -334 
Q 869 206 1303 881 
Q 816 1309 363 1684 
Q 588 2478 775 3534 
L 113 3534 
L 113 4003 
L 853 4003 
Q 953 4622 1044 5322 
L 1550 5253 
Q 1438 4566 1338 4003 
L 2519 4003 
L 2519 3597 
Q 2378 1894 1906 994 
Q 2319 663 2725 322 
z
M 2513 2509 
L 4231 2509 
L 4231 3484 
Q 4850 4009 5363 4434 
L 2738 4434 
L 2738 4891 
L 6056 4891 
L 6056 4397 
Q 5381 3822 4725 3266 
L 4725 2509 
L 6313 2509 
L 6313 2053 
L 4725 2053 
L 4725 53 
Q 4725 -709 3919 -709 
Q 3656 -709 3100 -697 
Q 3069 -459 3019 -191 
Q 3581 -241 3850 -247 
Q 4231 -247 4231 122 
L 4231 2053 
L 2513 2053 
L 2513 2509 
z
M 2038 3534 
L 1253 3534 
Q 1031 2341 869 1816 
Q 1200 1556 1531 1294 
Q 1953 2166 2038 3534 
z
" transform="scale(0.015625)"/>
     <path id="MicrosoftYaHei-3002" d="M 1219 863 
Q 1525 863 1750 625 
Q 1975 388 1975 72 
Q 1975 -284 1747 -507 
Q 1519 -731 1197 -731 
Q 875 -731 642 -503 
Q 409 -275 409 66 
Q 409 413 656 638 
Q 903 863 1219 863 
z
M 1209 -275 
Q 1328 -275 1431 -184 
Q 1534 -94 1534 50 
Q 1534 209 1434 304 
Q 1334 400 1191 400 
Q 1056 400 959 304 
Q 863 209 863 53 
Q 863 -100 977 -187 
Q 1091 -275 1209 -275 
z
" transform="scale(0.015625)"/>
    </defs>
    <use xlink:href="#MicrosoftYaHei-6bcf"/>
    <use xlink:href="#MicrosoftYaHei-6761" x="100"/>
    <use xlink:href="#MicrosoftYaHei-20" x="200"/>
    <use xlink:href="#MicrosoftYaHei-50" x="229.589844"/>
    <use xlink:href="#MicrosoftYaHei-44" x="290.771484"/>
    <use xlink:href="#MicrosoftYaHei-42" x="366.943359"/>
    <use xlink:href="#MicrosoftYaHei-20" x="429.6875"/>
    <use xlink:href="#MicrosoftYaHei-94fe" x="459.277344"/>
    <use xlink:href="#MicrosoftYaHei-5148" x="559.277344"/>
    <use xlink:href="#MicrosoftYaHei-5bf9" x="659.277344"/>
    <use xlink:href="#MicrosoftYaHei-5176" x="759.277344"/>
    <use xlink:href="#MicrosoftYaHei-5019" x="859.277344"/>
    <use xlink:href="#MicrosoftYaHei-9009" x="959.277344"/>
    <use xlink:href="#MicrosoftYaHei-53d6" x="1059.277344"/>
    <use xlink:href="#MicrosoftYaHei-5e73" x="1159.277344"/>
    <use xlink:href="#MicrosoftYaHei-5747" x="1259.277344"/>
    <use xlink:href="#MicrosoftYaHei-ff0c" x="1359.277344"/>
    <use xlink:href="#MicrosoftYaHei-518d" x="1459.277344"/>
    <use xlink:href="#MicrosoftYaHei-5bf9" x="1559.277344"/>
    <use xlink:href="#MicrosoftYaHei-540c" x="1659.277344"/>
    <use xlink:href="#MicrosoftYaHei-4e00" x="1759.277344"/>
    <use xlink:href="#MicrosoftYaHei-957f" x="1859.277344"/>
    <use xlink:href="#MicrosoftYaHei-5ea6" x="1959.277344"/>
    <use xlink:href="#MicrosoftYaHei-7ec4" x="2059.277344"/>
    <use xlink:href="#MicrosoftYaHei-7684" x="2159.277344"/>
    <use xlink:href="#MicrosoftYaHei-94fe" x="2259.277344"/>
    <use xlink:href="#MicrosoftYaHei-7b49" x="2359.277344"/>
    <use xlink:href="#MicrosoftYaHei-6743" x="2459.277344"/>
    <use xlink:href="#MicrosoftYaHei-5e73" x="2559.277344"/>
    <use xlink:href="#MicrosoftYaHei-5747" x="2659.277344"/>
    <use xlink:href="#MicrosoftYaHei-ff1b" x="2759.277344"/>
    <use xlink:href="#MicrosoftYaHei-6570" x="2859.277344"/>
    <use xlink:href="#MicrosoftYaHei-503c" x="2959.277344"/>
    <use xlink:href="#MicrosoftYaHei-8d8a" x="3059.277344"/>
    <use xlink:href="#MicrosoftYaHei-4f4e" x="3159.277344"/>
    <use xlink:href="#MicrosoftYaHei-8d8a" x="3259.277344"/>
    <use xlink:href="#MicrosoftYaHei-597d" x="3359.277344"/>
    <use xlink:href="#MicrosoftYaHei-3002" x="3459.277344"/>
   </g>
  </g>
 </g>
 <defs>
  <clipPath id="pf46728a31b">
   <rect x="43.111563" y="94.326" width="437.153125" height="233.114"/>
  </clipPath>
  <clipPath id="p57a38e2973">
   <rect x="495.644688" y="94.326" width="437.153125" height="233.114"/>
  </clipPath>
 </defs>
</svg>
